<svg xmlns="http://www.w3.org/2000/svg" xml:space="preserve" width="641.628" height="546.278" fill-rule="evenodd" clip-rule="evenodd" image-rendering="optimizeQuality" shape-rendering="geometricPrecision" text-rendering="geometricPrecision" viewBox="0 0 16624.39 14153.85"><path fill="#30252a" d="M4183.88 4750.43c0 498.78 28.19 599.09 65.37 1045.96-121.88-64.5-259.45-265.69-376.87-364.01-445.97-373.39-997.88-725.54-1649.71-725.54-50.99 0-87.13 36.17-87.13 87.19 0 90.64 218.95 135.96 401.7 208.43 399.1 158.18 817.27 475.73 1096.69 777.34 398.55 430.15 445.43 1021.98 498.78 1626.26 35.34 400.47 151.41 1187.65 176.87 1698.31 27.24 546.93-16.18 788.7 663.86 272.28 24.47-18.59-53.2-198.53-31.64-215.6 141.77-112.09 139.26-33.31 58.83-377.73-108.5-464.87 196.6-689.25 282.01-1247.54 59.34-387.97 286.69-808.04 566.32-1163.84 30.93-39.33 41.25-45.16 71.45-81.09 300.78-357.62 525.95-594.33 900.19-886.67l365.93-287.92c251.93-441.84-677.27 89.38-1046.79 456.89l-392.36 370.37c-48.48 48.48-83.66 80.92-131.16 130.31-108.35 112.52-529.29 607.41-560.7 724.99h-43.58c-2.74-123.29-65.37-226.76-65.37-610.16 0-467.18 258.83-931.76 450.35-1314.73 37.88-75.79 132.42-241.43 138.84-324.42 8.34-108.2-7.55-123.1-93.19-89.16-198.99 150.19-467.51 592.82-609.28 808.78-37.28 56.76-65.83 83.8-82.87 156.86-76.42-55.99-21.96 16.55-45.65-85.09l-41.59-372.47c-10.2-199.45-21.7-344.46-21.7-544.85 0-397.04 107.43-777.59 0-980.58-162.71 13.53-277.8 408.84-319.54 552.09-55.72 191.29-138.07 529.56-138.07 755.36z"/><path fill="#78c44d" d="M6820.58 1133.13c0-206.73 90.61-481.67-494.17-167.3-293.06 157.56-541.52 424.25-664.42 730.2-33.78 84.09-228.37 824.34 28.83 774.24 239.86-46.73 508.04-223.7 666.74-383.72 231.47-233.4 463.02-605.03 463.02-953.41z"/><path fill="#5ab75b" d="M5382.38 3769.84c0 430.54-43.63 680.98 464.52 268.41 344-279.3 581.45-670.29 581.45-1183.64 0-118.68-34.98-179.87-43.58-283.28-490.35 0-1002.39 683.62-1002.39 1198.51"/><path fill="#b0c933" d="M588.36 6188.64c29.12 109.11 237.79 224.37 341.88 268.26 752.95 317.46 1469.06-230.12 1488.56-464.38-74.85-6.23-154.23-78.01-340.1-139.3-364.79-120.31-746.33-113.01-1091.16 59.08-119.75 59.76-335.39 181.08-399.18 276.34"/><path fill="#5ab75b" d="M217.92 3399.4c0 106.89 88.24 297.43 134.27 366.91 38.52 58.16 65.72 83.12 105.21 134.49 159.12 206.97 526.24 413.82 850.07 413.82l338.16-10.49c107.83-19.22 177.71-13.13 76.28-229.45-171.61-365.99-667.61-762.45-1089.97-762.45-121.06 0-414.02-27.06-414.02 87.16z"/><path fill="#33b779" d="M6145.07 4576.11c0 178.5-12.89 156.24 21.79 305.08 206.09 0 310.4-63.46 450.56-137.8 185.98-98.65 338.66-272.91 451.75-441.68 157.72-235.34 280.37-574.29 209.03-880.52-559.06 12.46-1133.14 664.61-1133.14 1154.92z"/><path fill="#5ab75b" d="M7735.81 4794.03c359.83 86.15 806.05-106.1 1015.35-270.33 191.1-149.95 444.64-450.54 444.64-775.65-670.53-156.22-1459.99 476.72-1459.99 1045.97zM0 4750.44c4.21 188.9 242.79 370.86 382.99 466.85 208.08 142.46 437.48 208.66 728.36 208.66 207.07 0 509-99.41 588.35-217.91-59.14-253.85-637.21-588.36-1089.55-588.36-403.47 0-370.73 74.97-610.15 130.75zm7365.37 980.59c115.86 158.13 511.25 196.12 740.89 196.12 418.27 0 937.16-371.83 958.8-631.94-413.93-219.02-921.66-214.72-1307.83 43.21-118.13 78.91-353.55 249.11-391.86 392.61"/><path fill="#b0c933" d="M3900.59 719.1v152.54c0 270.87 201.45 713.16 414.02 762.68 28.73-21.05 92.54-99.59 124.39-137.11 268.73-316.55 290.21-799.85 101.05-1177.88C4496.43 232.19 4370.06-.01 4271.04-.01c-135.25 0-370.45 402.7-370.45 719.1z"/><path fill="#33b779" d="M6864.17 2789.25c148.96 0 299.74-62.47 407.1-115.9 148.79-74.04 206.9-116.38 317.64-227.12 103.61-103.61 150.13-163.29 219.81-303.18 128.35-257.7 123.21-327.43 123.21-595.89-240.45 0-377.21 12.34-592.91 147.98-584.48 367.55-635.12 1094.11-474.85 1094.11m-6057.9-588.36c0 426.43 388.83 878.34 775.65 1011.23 569.89 195.77 585.86 109.7 398.46-354.89-248.29-615.49-1174.11-868.54-1174.11-656.34M2418.8 3268.65c0 500.26 61.59 844.33 500.98 1155.13 332.07 234.89 414.24 199.91 414.24-87.37 0-331.62-93.1-594.7-236.2-787.97-77.03-104.05-149.95-188.95-249.53-273.46-128.23-108.85-429.5-339.85-429.5-6.33z"/><path fill="#b0c933" d="M3965.96 3595.51c176.56 0 50.14-565.6-2.45-694.86-36.3-89.2-136.18-247.77-199.77-323.23-115.47-137-415.95-398.34-647.63-398.34-30.17 362.52-93.27 510.62 158.89 930.66 64.45 107.37 185.96 227.54 285.51 302.85 76.54 57.89 291.98 182.91 405.44 182.91zm3660.9 21.79c0 89.94 10.21 89.49 43.58 152.54 143.09-3.19 316.26-79.26 414.44-130.33 244.61-127.24 418.92-339.72 516.79-594.55 26.53-69.08 47.77-140.22 62.47-221.12 7.59-41.83 9.99-73.66 13.13-118.11l-4.45-199.77c-648.72 0-1045.96 476.53-1045.96 1111.34m-3334.03-784.47c0 139.83 12.93 566.56 152.53 566.56 121.71 0 356.58-265.42 418.9-365.59 171.7-276 244.93-653.36 160.71-976.69-26.21-100.59-58.04-106.83-78.41-183.1-125.94 0-199.8 58.85-267.59 124.65-214.08 207.79-386.13 492.55-386.13 834.17z"/><path fill="#33b779" d="M1699.7 1242.09c0 327.54 22.45 592.55 277.02 856.1 171.44 177.47 703.57 454.14 703.57 255.24 0-370.15-83.5-572.13-260.87-806.89-159.61-211.26-719.73-509.31-719.73-304.44zm1089.55-435.83c0 445.76 190.55 766.89 527.11 976.47 449.27 279.77 388.11 100.37 388.11-104.83 0-378.37-238.78-723.18-519.59-918.61-67.07-46.67-236.11-141.31-330.26-149.15-40.7 60.77-65.38 91.91-65.38 196.12z"/><path fill="#b0c933" d="M4990.14 1133.13c0 165.34-17.88 264.15 43.58 392.24 700.13-163.12 854.49-1018.43 675.53-1285.68-143.49 11.95-282.43 119.53-383.41 204.95-46.83 39.6-62.26 71.99-101.71 116.21-105.88 118.73-233.99 357.91-233.99 572.27z"/><path fill="#30252a" fill-rule="nonzero" d="M4700.32 6952.69c314.86 0 568.78 253.92 568.78 568.79v6063.6c0 314.85-253.91 568.78-568.78 568.78-314.86 0-568.78-253.92-568.78-568.78v-6063.6c0-314.86 253.91-568.79 568.78-568.79m9445.82 0h1960.26c284.39 0 517.99 233.6 517.99 518 0 284.39-233.6 517.99-517.99 517.99h-832.85c-284.4 0-507.85 223.45-507.85 507.84v2600.14c0 284.39 223.45 517.99 507.85 517.99h436.74c284.39 0 507.84 233.61 507.84 518s-223.45 507.84-507.84 507.84h-944.59v995.37c0 284.39-233.6 517.99-517.99 517.99h-101.57c-284.39 0-517.99-233.6-517.99-517.99V7470.69c0-284.4 233.6-518 517.99-518m-4895.89 5222.65-866.01-5327.26c-34.99-183.7-192.44-323.67-376.15-323.67h-673.57c-183.7 0-341.16 139.97-376.15 323.67l-874.76 5362.25c-43.73 271.18 166.21 516.11 437.38 516.11 218.69 0 411.13-166.2 437.38-384.89l122.47-918.5h1093.45s34.99 139.97 61.23 332.41l69.98 559.85c34.99 236.18 236.19 411.13 472.37 411.13 288.68 0 516.11-262.42 472.38-551.1m-1618.3-1635.79c-227.44 0-402.39-201.19-367.4-437.38l358.65-2764.23h17.5l367.4 2764.23c34.99 227.43-139.97 437.38-376.15 437.38m5274.79 1635.79-866.01-5327.26c-34.99-183.7-192.44-323.67-376.15-323.67h-673.57c-183.7 0-341.16 139.97-376.15 323.67l-874.76 5362.25c-43.73 271.18 166.21 516.11 437.38 516.11 218.69 0 411.13-166.2 437.38-384.89l122.47-918.5h1093.45s34.99 139.97 61.23 332.41l69.98 559.85c34.99 236.18 236.19 411.13 472.37 411.13 288.68 0 516.11-262.42 472.38-551.1m-1618.3-1635.79c-227.44 0-402.39-201.19-367.4-437.38l358.65-2764.23h17.5l367.4 2764.23c34.99 227.43-139.97 437.38-376.15 437.38"/><path fill="#30252a" fill-rule="nonzero" d="M4700.32 6952.69c314.86 0 568.78 253.92 568.78 568.79v6063.6c0 314.85-253.91 568.78-568.78 568.78-314.86 0-568.78-253.92-568.78-568.78v-6063.6c0-314.86 253.91-568.79 568.78-568.79m9445.82 0h1960.26c284.39 0 517.99 233.6 517.99 518 0 284.39-233.6 517.99-517.99 517.99h-832.85c-284.4 0-507.85 223.45-507.85 507.84v2600.14c0 284.39 223.45 517.99 507.85 517.99h436.74c284.39 0 507.84 233.61 507.84 518s-223.45 507.84-507.84 507.84h-944.59v995.37c0 284.39-233.6 517.99-517.99 517.99h-101.57c-284.39 0-517.99-233.6-517.99-517.99V7470.69c0-284.4 233.6-518 517.99-518"/><path fill="#33b779" fill-rule="nonzero" d="m5852.35 13931.81 353.79-801.46h223.26l354.93 801.46h-235.86l-277.08-690.4h89.31l-277.07 690.4zm193.49-155.71 58.39-167.16h391.58l58.38 167.16h-508.36zm802.61 155.71v-801.46h186.63l332.04 544.99h-98.47l322.88-544.99h186.63l2.28 801.46h-208.38l-2.29-484.31h35.5l-241.59 405.31h-100.75l-248.45-405.31h43.51v484.31zm1092.28 0v-801.46h409.89c105.34 0 183.95 19.27 235.87 57.82q77.85 57.81 77.85 151.71c0 41.22-10.88 77.28-32.63 108.2-21.76 30.92-52.28 55.34-91.6 73.28-39.31 17.93-86.06 26.9-140.25 26.9l22.9-54.96c56.48 0 105.72 8.59 147.7 25.76s74.61 41.98 97.89 74.41c23.29 32.44 34.92 71.95 34.92 118.51 0 69.46-28.05 123.46-84.15 162.01-56.1 38.54-137.97 57.82-245.59 57.82zm224.41-163.72h190.07c38.93 0 68.51-6.68 88.73-20.04 20.23-13.37 30.35-33.78 30.35-61.26s-10.12-47.9-30.35-61.25c-20.22-13.36-49.81-20.04-88.73-20.04h-206.09v-156.86h171.73c38.17 0 66.8-6.48 85.87-19.46 19.09-12.99 28.62-32.44 28.62-58.39s-9.54-45.23-28.62-57.83c-19.08-12.59-47.7-18.89-85.87-18.89h-155.71v474.01zm656.06 163.72v-801.46h226.7v801.46zm596.53-491.18h372.1v169.45h-372.1zm16.02 316h419.06v175.18h-643.46v-801.46h628.58v175.17h-404.17v451.11zm545 175.18v-801.46h186.63l441.95 533.54h-88.17v-533.54h222.12v801.46h-186.62l-441.95-533.54h88.16v533.54zm1093.42 0v-621.7h-246.15v-179.76h717.88v179.76h-245.03v621.7zm420.2 0 353.79-801.46h223.26l354.93 801.46h-235.86l-277.08-690.4h89.31l-277.07 690.4zm193.49-155.71 58.39-167.16h391.58l58.38 167.16h-508.36zm802.6 155.71v-801.46h226.7v621.71h382.42v179.75z"/></svg>