<svg xmlns="http://www.w3.org/2000/svg" xmlns:v="https://svgstorm.com"
viewBox = "0 0 1084 922"
width="1084"
height="922">
<g fill="None" fill-opacity="0.0" stroke="#000000" stroke-opacity="0.00" stroke-width="0.3"><path d="
M 0.00 309.00 
C 37.51 291.65 90.94 302.31 112.00 340.00
C 77.78 368.43 20.48 351.73 0.00 315.00
L 0.00 922.00
L 298.00 922.00
C 288.77 918.30 281.46 915.19 275.08 905.92 C 268.70 896.64 268.55 885.18 269.00 873.00 C 269.45 860.82 268.80 846.72 269.00 834.00 C 269.20 821.28 268.91 806.93 269.00 794.00 C 269.09 781.07 268.96 767.98 269.00 755.00 C 269.04 742.02 268.99 729.02 269.00 716.00 C 269.01 702.98 269.01 690.08 269.00 677.00 C 268.99 663.92 269.03 650.07 269.00 637.00 C 268.97 623.93 269.08 610.99 269.00 598.00 C 268.92 585.01 269.18 571.90 269.00 559.00 C 268.82 546.10 269.38 531.64 269.00 519.00 C 268.62 506.36 269.87 491.99 269.00 480.00 C 268.13 468.01 266.49 456.11 265.01 444.99 C 263.53 433.88 260.52 423.55 257.23 413.77 C 253.94 403.99 250.22 394.55 244.25 386.75 C 238.27 378.96 233.18 372.41 225.75 366.25 C 218.33 360.09 212.60 354.17 204.25 348.75 C 195.90 343.34 189.40 337.18 179.77 333.23 C 170.14 329.28 163.78 323.44 152.26 321.74 C 140.73 320.05 134.86 305.84 149.00 306.00 C 163.15 306.16 170.50 309.51 182.02 311.98 C 193.55 314.44 200.50 319.51 210.08 323.92 C 219.65 328.33 225.82 333.51 234.08 338.92 C 242.34 344.33 248.46 349.71 255.75 356.25 C 263.04 362.78 267.73 370.75 276.00 376.00
C 276.04 364.77 273.85 353.76 273.22 342.78 C 272.59 331.80 272.97 319.00 272.79 308.77 C 272.61 298.54 274.42 285.15 276.99 275.99 C 279.57 266.84 281.24 256.06 285.32 248.32 C 289.41 240.58 288.78 229.07 298.25 225.25 C 307.71 221.42 306.78 243.29 306.00 252.00 C 305.22 260.71 303.68 274.85 303.00 285.00 C 302.32 295.15 303.57 308.91 304.78 319.22 C 305.99 329.53 305.36 342.63 309.00 352.00
C 313.58 345.01 319.63 334.82 324.25 328.25 C 328.87 321.68 335.93 310.48 340.25 305.25 C 344.58 300.03 355.94 284.01 360.92 291.09 C 365.89 298.16 355.19 311.41 352.08 319.08 C 348.96 326.74 342.64 336.40 339.22 345.22 C 335.81 354.05 330.84 362.98 328.07 373.07 C 325.31 383.16 322.72 395.43 323.00 407.00 C 323.28 418.57 325.57 430.61 327.00 442.00
C 334.41 437.01 338.77 426.00 345.75 418.75 C 352.74 411.50 358.02 402.62 365.75 395.75 C 373.49 388.89 379.04 381.24 386.77 374.77 C 394.50 368.30 400.92 360.72 409.25 354.25 C 417.57 347.77 423.88 342.66 434.08 337.08 C 444.28 331.50 449.41 324.89 463.02 323.02 C 476.64 321.16 468.34 336.94 458.77 341.77 C 449.20 346.60 444.19 354.98 435.30 360.30 C 426.42 365.63 421.09 374.74 413.25 381.25 C 405.41 387.76 400.00 395.29 393.08 403.08 C 386.16 410.88 379.66 417.89 373.75 426.75 C 367.83 435.61 362.74 443.66 357.70 453.70 C 352.65 463.73 349.55 472.90 346.67 484.67 C 343.79 496.44 343.63 511.59 344.00 525.00 C 344.37 538.41 343.83 553.16 344.00 567.00 C 344.17 580.84 343.92 595.98 344.00 610.00 C 344.08 624.02 343.96 637.88 344.00 652.00 C 344.04 666.12 343.98 680.83 344.00 695.00 C 344.02 709.17 343.98 723.89 344.00 738.00 C 344.02 752.11 343.96 765.99 344.00 780.00 C 344.04 794.01 343.92 809.19 344.00 823.00 C 344.08 836.81 343.83 851.67 344.00 865.00 C 344.17 878.33 345.17 892.32 339.23 903.23 C 333.29 914.14 325.56 918.09 315.00 922.00
L 914.00 922.00
C 896.45 915.76 886.95 903.09 888.00 883.00 C 889.05 862.91 887.54 838.92 888.00 818.00 C 888.46 797.08 887.81 774.25 888.00 753.00 C 888.19 731.75 887.97 709.29 888.00 688.00 C 888.03 666.71 888.10 644.09 888.00 623.00 C 887.90 601.91 888.30 578.51 888.00 558.00 C 887.70 537.49 888.70 512.16 888.00 493.00 C 887.30 473.84 894.63 457.53 913.67 453.67 C 932.72 449.81 958.70 454.79 978.00 453.00 C 997.30 451.21 1025.22 454.88 1043.00 453.00 C 1060.78 451.12 1082.97 460.17 1083.00 479.00
C 1083.00 479.00 1084.00 479.00 1084.00 479.00
L 1084.00 0.00
L 281.00 0.00
C 290.05 7.51 294.06 15.19 298.92 26.08 C 303.79 36.97 305.17 50.63 304.07 63.07 C 302.97 75.52 298.38 85.18 292.08 96.08 C 285.78 106.99 275.50 109.14 268.25 97.75 C 260.99 86.36 257.13 78.67 255.00 66.00 C 252.88 53.32 253.41 37.98 257.78 26.78 C 262.14 15.57 266.60 6.63 276.00 0.00
L 0.00 0.00
L 0.00 309.00
M 373.00 15.00 
C 386.66 48.80 364.09 94.56 327.00 100.00
C 316.83 64.93 337.25 23.07 373.00 15.00
M 185.00 40.00 
C 193.68 40.42 200.71 44.42 208.08 48.92 C 215.44 53.43 218.61 58.57 224.92 65.08 C 231.22 71.59 232.61 77.17 236.98 86.02 C 241.35 94.88 240.66 102.29 242.00 114.00 C 243.34 125.71 234.97 128.50 226.31 122.69 C 217.64 116.89 213.01 116.21 206.25 109.75 C 199.49 103.29 195.30 99.86 191.08 91.92 C 186.87 83.98 183.87 76.63 182.22 67.78 C 180.57 58.93 180.45 47.74 185.00 40.00
M 442.00 54.00 
C 449.98 57.49 444.98 74.17 445.00 81.00 C 445.02 87.83 440.16 98.65 437.08 105.08 C 434.00 111.51 429.95 119.65 425.23 125.23 C 420.51 130.81 415.54 137.33 409.75 141.75 C 403.96 146.17 397.49 151.93 390.77 154.77 C 384.05 157.61 374.12 164.69 366.78 161.22 C 359.44 157.75 361.68 142.16 363.00 135.00 C 364.32 127.83 365.94 115.84 368.98 108.98 C 372.01 102.11 376.46 94.69 380.92 88.92 C 385.39 83.15 391.30 77.43 396.75 72.75 C 402.21 68.07 409.92 63.29 416.25 60.25 C 422.57 57.20 434.63 50.78 442.00 54.00
M 120.00 76.00 
C 128.49 77.06 136.28 83.93 144.08 87.92 C 151.88 91.92 157.00 99.39 162.30 106.70 C 167.61 114.00 171.03 122.74 173.33 131.67 C 175.62 140.60 177.90 160.28 166.00 158.00 C 154.10 155.72 149.60 152.31 140.77 147.23 C 131.94 142.15 127.64 136.56 121.75 129.25 C 115.85 121.95 112.71 111.94 112.00 103.00 C 111.29 94.05 105.73 74.22 120.00 76.00
M 518.00 101.00 
C 516.72 111.04 517.41 125.96 512.68 134.68 C 507.95 143.39 503.90 152.37 496.75 158.75 C 489.61 165.14 482.68 172.72 474.31 175.30 C 465.93 177.89 451.66 187.71 444.25 180.75 C 436.85 173.78 444.01 156.96 446.78 148.78 C 449.54 140.59 455.40 130.85 461.77 123.77 C 468.14 116.69 475.09 111.90 484.08 107.08 C 493.07 102.25 506.90 99.55 518.00 101.00
M 323.00 122.00 
C 328.23 124.58 327.23 135.28 329.33 140.67 C 331.43 146.06 329.43 158.01 329.22 164.22 C 329.01 170.43 326.89 178.70 324.23 184.23 C 321.57 189.76 319.82 196.25 315.75 200.75 C 311.67 205.24 308.68 211.00 304.10 214.10 C 299.52 217.20 293.84 225.19 287.33 221.67 C 280.82 218.15 282.36 209.34 281.00 203.00 C 279.64 196.66 280.02 185.87 280.00 179.00 C 279.98 172.13 282.36 164.58 284.92 158.92 C 287.47 153.26 289.88 147.13 293.77 142.77 C 297.66 138.41 300.99 132.53 305.25 129.25 C 309.51 125.97 317.35 119.21 323.00 122.00
M 66.00 138.00 
C 77.02 139.97 88.90 145.15 98.70 151.30 C 108.49 157.46 116.21 163.83 122.77 174.23 C 129.33 184.63 134.77 193.03 136.00 207.00 C 137.22 220.98 115.04 214.84 104.99 211.01 C 94.94 207.18 84.90 201.41 76.75 193.25 C 68.60 185.09 61.30 176.45 57.08 165.92 C 52.85 155.40 46.36 134.48 66.00 138.00
M 209.00 142.00 
C 216.75 142.97 224.47 149.21 231.08 153.92 C 237.70 158.63 243.65 163.91 248.75 171.25 C 253.86 178.58 258.12 184.41 260.93 194.07 C 263.73 203.74 264.47 213.22 265.00 225.00 C 265.53 236.78 251.94 235.60 244.32 230.68 C 236.70 225.76 229.89 222.73 223.75 216.25 C 217.61 209.76 212.77 203.59 209.08 195.92 C 205.38 188.26 200.07 177.58 201.00 169.00 C 201.93 160.42 197.35 140.54 209.00 142.00
M 566.00 163.00 
C 567.00 173.63 565.56 187.98 562.07 197.07 C 558.58 206.16 554.33 214.45 548.25 221.25 C 542.16 228.05 534.39 235.23 526.92 237.92 C 519.46 240.61 504.98 251.41 498.71 244.29 C 492.44 237.18 498.62 219.55 499.99 210.99 C 501.36 202.44 507.73 193.47 513.25 186.25 C 518.76 179.03 525.83 173.58 534.69 169.69 C 543.56 165.81 555.47 161.96 566.00 163.00
M 417.00 167.00 
C 419.16 177.93 421.27 191.67 418.67 202.67 C 416.07 213.67 413.54 222.66 408.23 232.23 C 402.92 241.79 399.32 246.70 391.25 255.25 C 383.18 263.79 378.92 264.88 368.92 272.92 C 358.93 280.97 348.73 274.45 350.00 261.00 C 351.27 247.55 349.94 236.10 353.98 224.98 C 358.01 213.85 361.40 207.54 367.75 198.75 C 374.11 189.96 378.83 184.85 387.25 178.25 C 395.66 171.64 406.23 167.65 417.00 167.00
M 170.00 202.00 
C 181.44 204.83 190.25 217.29 198.70 225.30 C 207.15 233.31 212.23 249.64 215.78 260.22 C 219.33 270.80 220.96 301.41 206.78 298.22 C 192.60 295.03 185.61 285.31 175.77 277.23 C 165.93 269.15 160.96 252.94 159.07 241.93 C 157.19 230.92 151.80 197.49 170.00 202.00
M 34.00 215.00 
C 43.64 215.03 56.33 217.51 65.03 220.97 C 73.73 224.44 81.47 230.17 88.25 235.75 C 95.02 241.33 102.40 248.57 106.30 254.70 C 110.21 260.83 121.83 275.17 112.92 279.92 C 104.00 284.66 88.17 282.14 78.33 281.67 C 68.49 281.20 59.07 276.24 50.31 271.69 C 41.54 267.15 37.09 263.61 29.75 255.25 C 22.41 246.89 20.83 243.54 15.68 231.32 C 10.53 219.10 21.20 214.96 34.00 215.00
M 475.00 223.00 
C 476.98 231.64 476.26 243.04 474.22 251.22 C 472.19 259.41 470.06 266.66 465.75 273.75 C 461.43 280.83 458.62 285.71 453.23 292.23 C 447.84 298.75 443.23 301.60 435.92 306.92 C 428.62 312.24 424.47 312.92 414.99 316.99 C 405.52 321.06 398.16 315.90 400.00 305.00 C 401.84 294.10 399.98 286.44 403.98 277.98 C 407.97 269.51 410.76 264.45 415.75 257.75 C 420.75 251.06 424.74 247.63 430.75 241.75 C 436.76 235.88 441.90 233.08 449.23 229.23 C 456.56 225.38 466.17 222.48 475.00 223.00
M 600.00 244.00 
C 597.21 289.24 547.14 320.22 504.00 313.00
C 507.04 268.27 557.53 235.42 600.00 244.00
M 557.00 334.00 
C 565.89 334.86 581.09 337.25 588.70 343.31 C 596.30 349.36 582.81 361.86 576.30 367.30 C 569.80 372.75 559.54 379.15 550.32 382.32 C 541.10 385.49 525.32 388.66 515.00 386.00 C 504.68 383.34 490.62 385.26 482.77 377.23 C 474.92 369.20 489.31 360.16 495.70 354.70 C 502.10 349.24 512.09 342.40 521.22 339.22 C 530.36 336.05 546.29 332.96 557.00 334.00
M 159.00 390.00 
C 155.28 402.35 146.20 408.67 135.31 415.31 C 124.41 421.94 111.45 426.27 98.00 427.00 C 84.55 427.73 67.75 425.28 56.32 419.68 C 44.89 414.08 32.85 404.57 45.25 396.25 C 57.64 387.92 64.15 384.21 77.67 379.67 C 91.19 375.13 107.31 375.69 121.22 377.78 C 135.13 379.87 146.11 385.21 159.00 390.00
M 533.00 745.00 
C 509.33 745.00 485.67 745.00 462.00 745.00
C 460.74 764.03 455.87 784.40 454.07 803.07 C 452.28 821.75 433.67 834.50 414.99 828.01 C 396.32 821.51 393.65 800.70 397.99 782.99 C 402.34 765.29 403.82 744.78 407.33 726.33 C 410.83 707.88 413.41 688.53 416.78 669.78 C 420.15 651.03 422.34 631.87 426.00 613.00 C 429.65 594.12 431.19 575.15 435.00 556.00 C 438.81 536.85 440.44 518.78 444.00 499.00 C 447.55 479.22 449.61 463.80 453.98 442.98 C 458.34 422.15 484.56 425.84 502.00 425.00 C 519.44 424.16 543.97 425.01 546.99 446.01 C 550.02 467.01 553.42 483.03 556.00 503.00 C 558.58 522.97 563.23 539.66 565.93 559.07 C 568.63 578.49 571.76 596.98 574.98 616.02 C 578.19 635.06 580.69 654.13 583.99 673.01 C 587.29 691.88 589.95 710.94 593.33 729.67 C 596.71 748.40 598.56 767.96 602.78 786.22 C 607.00 804.49 598.82 823.35 580.98 827.98 C 563.13 832.60 544.17 822.70 541.07 803.93 C 537.98 785.15 536.84 763.78 533.00 745.00
M 771.00 745.00 
C 758.40 745.21 743.36 744.72 731.00 745.00 C 718.64 745.28 700.02 740.74 699.22 754.22 C 698.43 767.71 695.21 778.03 694.22 790.22 C 693.23 802.41 692.29 812.59 684.25 821.25 C 676.21 829.90 662.97 830.78 652.78 827.22 C 642.58 823.67 635.59 815.43 634.67 804.33 C 633.75 793.22 636.64 780.08 638.78 768.78 C 640.91 757.48 642.21 744.83 644.33 733.33 C 646.45 721.83 648.50 709.76 650.00 698.00 C 651.50 686.24 654.98 674.91 655.99 662.99 C 657.00 651.07 660.89 639.89 661.98 627.98 C 663.07 616.06 665.98 604.63 667.93 592.93 C 669.87 581.23 671.03 568.90 673.33 557.33 C 675.63 545.76 676.73 533.46 678.98 521.98 C 681.23 510.49 683.06 498.29 684.93 486.93 C 686.79 475.56 689.12 462.68 690.78 451.78 C 692.43 440.88 695.50 430.78 706.70 426.70 C 717.89 422.61 732.96 425.95 745.00 425.00 C 757.04 424.05 769.87 423.68 778.25 432.75 C 786.62 441.82 786.30 452.11 788.33 463.67 C 790.36 475.23 791.73 487.39 794.00 499.00 C 796.27 510.61 797.29 522.66 799.78 534.22 C 802.26 545.79 803.03 558.05 805.33 569.67 C 807.63 581.29 809.41 593.19 811.00 605.00 C 812.59 616.81 815.99 628.04 816.99 640.01 C 818.00 651.98 821.71 663.11 822.98 675.02 C 824.24 686.94 826.97 698.48 828.78 710.22 C 830.59 721.96 831.83 734.17 834.33 745.67 C 836.83 757.18 837.19 769.69 839.98 781.02 C 842.76 792.36 843.47 805.31 837.08 815.08 C 830.70 824.85 821.30 829.17 810.00 829.00 C 798.70 828.84 789.77 824.19 783.70 814.30 C 777.62 804.42 778.10 791.85 776.67 780.33 C 775.24 768.81 773.40 756.39 771.00 745.00
M 420.00 855.00 
C 426.82 872.94 435.77 890.16 443.00 908.00
C 437.33 908.00 431.67 908.00 426.00 908.00
C 426.49 904.22 422.50 901.81 423.00 898.00
C 415.67 898.00 408.33 898.00 401.00 898.00
C 400.49 909.21 390.02 908.83 381.00 908.00
C 383.10 899.98 387.33 895.03 389.92 886.92 C 392.52 878.82 397.26 874.55 399.77 865.77 C 402.28 856.99 408.82 851.62 420.00 855.00
M 460.00 855.00 
C 465.39 864.34 470.38 877.34 479.00 883.00
C 482.48 873.02 490.09 864.74 494.00 855.00
C 498.67 855.00 503.33 855.00 508.00 855.00
C 508.00 872.67 508.00 890.33 508.00 908.00
C 503.00 908.00 498.00 908.00 493.00 908.00
C 493.00 899.67 493.00 891.33 493.00 883.00
C 488.37 888.93 484.40 896.22 481.00 903.00
C 469.56 905.15 466.79 890.44 462.00 883.00
C 459.70 890.42 461.65 899.82 461.00 908.00
C 456.00 908.00 451.00 908.00 446.00 908.00
C 446.00 890.33 446.00 872.67 446.00 855.00
C 450.67 855.00 455.33 855.00 460.00 855.00
M 560.00 881.00 
C 571.18 885.48 570.20 902.80 557.97 905.97 C 545.75 909.15 530.19 907.79 517.00 908.00
C 517.00 890.33 517.00 872.67 517.00 855.00
C 529.39 855.94 543.11 853.31 555.02 855.98 C 566.93 858.64 567.03 873.85 560.00 881.00
M 590.00 855.00 
C 590.00 872.67 590.00 890.33 590.00 908.00
C 584.67 908.00 579.33 908.00 574.00 908.00
C 574.00 890.33 574.00 872.67 574.00 855.00
C 579.33 855.00 584.67 855.00 590.00 855.00
M 642.00 855.00 
C 642.00 859.00 642.00 863.00 642.00 867.00
C 633.00 867.00 624.00 867.00 615.00 867.00
C 611.80 880.75 630.04 873.01 638.00 875.00
C 638.00 879.00 638.00 883.00 638.00 887.00
C 630.33 887.00 622.67 887.00 615.00 887.00
C 615.00 890.00 615.00 893.00 615.00 896.00
C 624.33 896.00 633.67 896.00 643.00 896.00
C 643.00 900.00 643.00 904.00 643.00 908.00
C 628.67 908.00 614.33 908.00 600.00 908.00
C 600.00 890.33 600.00 872.67 600.00 855.00
C 614.00 855.00 628.00 855.00 642.00 855.00
M 664.00 855.00 
C 669.46 864.47 677.85 871.68 684.00 881.00
C 686.31 873.25 684.35 863.51 685.00 855.00
C 690.33 855.00 695.67 855.00 701.00 855.00
C 701.00 872.67 701.00 890.33 701.00 908.00
C 681.84 913.31 677.47 889.68 665.00 882.00
C 665.00 890.66 665.00 899.33 665.00 908.00
C 660.00 908.00 655.00 908.00 650.00 908.00
C 650.00 890.33 650.00 872.67 650.00 855.00
C 654.67 855.00 659.33 855.00 664.00 855.00
M 752.00 855.00 
C 752.00 859.00 752.00 863.00 752.00 867.00
C 747.00 867.00 742.00 867.00 737.00 867.00
C 737.00 880.67 737.00 894.33 737.00 908.00
C 731.67 908.00 726.33 908.00 721.00 908.00
C 721.00 894.33 721.00 880.67 721.00 867.00
C 715.67 867.00 710.33 867.00 705.00 867.00
C 705.00 863.00 705.00 859.00 705.00 855.00
C 720.66 855.00 736.33 855.00 752.00 855.00
M 788.00 855.00 
C 793.57 873.18 803.79 889.89 810.00 908.00
C 800.98 908.82 790.55 909.25 790.00 898.00
C 782.67 898.00 775.33 898.00 768.00 898.00
C 768.49 901.78 764.50 904.19 765.00 908.00
C 759.67 908.00 754.33 908.00 749.00 908.00
C 754.70 889.72 764.92 873.14 771.00 855.00
C 776.67 855.00 782.33 855.00 788.00 855.00
M 829.00 855.00 
C 829.00 868.33 829.00 881.67 829.00 895.00
C 837.33 895.00 845.67 895.00 854.00 895.00
C 854.00 899.33 854.00 903.67 854.00 908.00
C 840.67 908.00 827.33 908.00 814.00 908.00
C 814.00 890.33 814.00 872.67 814.00 855.00
C 819.00 855.00 824.00 855.00 829.00 855.00 Z"/>
</g>
<g fill="None" fill-opacity="0.0" stroke="#FFFFFF" stroke-opacity="0.96" stroke-width="0.3"><path d="
M 281.00 0.00 
L 276.00 0.00
C 266.60 6.63 262.14 15.57 257.78 26.78 C 253.41 37.98 252.88 53.32 255.00 66.00 C 257.13 78.67 260.99 86.36 268.25 97.75 C 275.50 109.14 285.78 106.99 292.08 96.08 C 298.38 85.18 302.97 75.52 304.07 63.07 C 305.17 50.63 303.79 36.97 298.92 26.08 C 294.06 15.19 290.05 7.51 281.00 0.00 Z"/>
</g>
<g fill="None" fill-opacity="0.0" stroke="#FFFFFF" stroke-opacity="0.95" stroke-width="0.3"><path d="
M 373.00 15.00 
C 337.25 23.07 316.83 64.93 327.00 100.00
C 364.09 94.56 386.66 48.80 373.00 15.00 Z"/>
</g>
<g fill="None" fill-opacity="0.0" stroke="#FFFFFF" stroke-opacity="0.96" stroke-width="0.3"><path d="
M 185.00 40.00 
C 180.45 47.74 180.57 58.93 182.22 67.78 C 183.87 76.63 186.87 83.98 191.08 91.92 C 195.30 99.86 199.49 103.29 206.25 109.75 C 213.01 116.21 217.64 116.89 226.31 122.69 C 234.97 128.50 243.34 125.71 242.00 114.00 C 240.66 102.29 241.35 94.88 236.98 86.02 C 232.61 77.17 231.22 71.59 224.92 65.08 C 218.61 58.57 215.44 53.43 208.08 48.92 C 200.71 44.42 193.68 40.42 185.00 40.00 Z"/>
</g>
<g fill="None" fill-opacity="0.0" stroke="#FFFFFF" stroke-opacity="0.96" stroke-width="0.3"><path d="
M 442.00 54.00 
C 434.63 50.78 422.57 57.20 416.25 60.25 C 409.92 63.29 402.21 68.07 396.75 72.75 C 391.30 77.43 385.39 83.15 380.92 88.92 C 376.46 94.69 372.01 102.11 368.98 108.98 C 365.94 115.84 364.32 127.83 363.00 135.00 C 361.68 142.16 359.44 157.75 366.78 161.22 C 374.12 164.69 384.05 157.61 390.77 154.77 C 397.49 151.93 403.96 146.17 409.75 141.75 C 415.54 137.33 420.51 130.81 425.23 125.23 C 429.95 119.65 434.00 111.51 437.08 105.08 C 440.16 98.65 445.02 87.83 445.00 81.00 C 444.98 74.17 449.98 57.49 442.00 54.00 Z"/>
</g>
<g fill="None" fill-opacity="0.0" stroke="#FFFFFF" stroke-opacity="0.96" stroke-width="0.3"><path d="
M 120.00 76.00 
C 105.73 74.22 111.29 94.05 112.00 103.00 C 112.71 111.94 115.85 121.95 121.75 129.25 C 127.64 136.56 131.94 142.15 140.77 147.23 C 149.60 152.31 154.10 155.72 166.00 158.00 C 177.90 160.28 175.62 140.60 173.33 131.67 C 171.03 122.74 167.61 114.00 162.30 106.70 C 157.00 99.39 151.88 91.92 144.08 87.92 C 136.28 83.93 128.49 77.06 120.00 76.00 Z"/>
</g>
<g fill="None" fill-opacity="0.0" stroke="#FFFFFF" stroke-opacity="0.96" stroke-width="0.3"><path d="
M 518.00 101.00 
C 506.90 99.55 493.07 102.25 484.08 107.08 C 475.09 111.90 468.14 116.69 461.77 123.77 C 455.40 130.85 449.54 140.59 446.78 148.78 C 444.01 156.96 436.85 173.78 444.25 180.75 C 451.66 187.71 465.93 177.89 474.31 175.30 C 482.68 172.72 489.61 165.14 496.75 158.75 C 503.90 152.37 507.95 143.39 512.68 134.68 C 517.41 125.96 516.72 111.04 518.00 101.00 Z"/>
</g>
<g fill="None" fill-opacity="0.0" stroke="#FFFFFF" stroke-opacity="0.96" stroke-width="0.3"><path d="
M 323.00 122.00 
C 317.35 119.21 309.51 125.97 305.25 129.25 C 300.99 132.53 297.66 138.41 293.77 142.77 C 289.88 147.13 287.47 153.26 284.92 158.92 C 282.36 164.58 279.98 172.13 280.00 179.00 C 280.02 185.87 279.64 196.66 281.00 203.00 C 282.36 209.34 280.82 218.15 287.33 221.67 C 293.84 225.19 299.52 217.20 304.10 214.10 C 308.68 211.00 311.67 205.24 315.75 200.75 C 319.82 196.25 321.57 189.76 324.23 184.23 C 326.89 178.70 329.01 170.43 329.22 164.22 C 329.43 158.01 331.43 146.06 329.33 140.67 C 327.23 135.28 328.23 124.58 323.00 122.00 Z"/>
</g>
<g fill="None" fill-opacity="0.0" stroke="#FFFFFF" stroke-opacity="0.96" stroke-width="0.3"><path d="
M 66.00 138.00 
C 46.36 134.48 52.85 155.40 57.08 165.92 C 61.30 176.45 68.60 185.09 76.75 193.25 C 84.90 201.41 94.94 207.18 104.99 211.01 C 115.04 214.84 137.22 220.98 136.00 207.00 C 134.77 193.03 129.33 184.63 122.77 174.23 C 116.21 163.83 108.49 157.46 98.70 151.30 C 88.90 145.15 77.02 139.97 66.00 138.00 Z"/>
</g>
<g fill="None" fill-opacity="0.0" stroke="#FFFFFF" stroke-opacity="0.96" stroke-width="0.3"><path d="
M 209.00 142.00 
C 197.35 140.54 201.93 160.42 201.00 169.00 C 200.07 177.58 205.38 188.26 209.08 195.92 C 212.77 203.59 217.61 209.76 223.75 216.25 C 229.89 222.73 236.70 225.76 244.32 230.68 C 251.94 235.60 265.53 236.78 265.00 225.00 C 264.47 213.22 263.73 203.74 260.93 194.07 C 258.12 184.41 253.86 178.58 248.75 171.25 C 243.65 163.91 237.70 158.63 231.08 153.92 C 224.47 149.21 216.75 142.97 209.00 142.00 Z"/>
</g>
<g fill="None" fill-opacity="0.0" stroke="#FFFFFF" stroke-opacity="0.96" stroke-width="0.3"><path d="
M 566.00 163.00 
C 555.47 161.96 543.56 165.81 534.69 169.69 C 525.83 173.58 518.76 179.03 513.25 186.25 C 507.73 193.47 501.36 202.44 499.99 210.99 C 498.62 219.55 492.44 237.18 498.71 244.29 C 504.98 251.41 519.46 240.61 526.92 237.92 C 534.39 235.23 542.16 228.05 548.25 221.25 C 554.33 214.45 558.58 206.16 562.07 197.07 C 565.56 187.98 567.00 173.63 566.00 163.00 Z"/>
</g>
<g fill="None" fill-opacity="0.0" stroke="#FFFFFF" stroke-opacity="0.96" stroke-width="0.3"><path d="
M 417.00 167.00 
C 406.23 167.65 395.66 171.64 387.25 178.25 C 378.83 184.85 374.11 189.96 367.75 198.75 C 361.40 207.54 358.01 213.85 353.98 224.98 C 349.94 236.10 351.27 247.55 350.00 261.00 C 348.73 274.45 358.93 280.97 368.92 272.92 C 378.92 264.88 383.18 263.79 391.25 255.25 C 399.32 246.70 402.92 241.79 408.23 232.23 C 413.54 222.66 416.07 213.67 418.67 202.67 C 421.27 191.67 419.16 177.93 417.00 167.00 Z"/>
</g>
<g fill="None" fill-opacity="0.0" stroke="#FFFFFF" stroke-opacity="0.96" stroke-width="0.3"><path d="
M 170.00 202.00 
C 151.80 197.49 157.19 230.92 159.07 241.93 C 160.96 252.94 165.93 269.15 175.77 277.23 C 185.61 285.31 192.60 295.03 206.78 298.22 C 220.96 301.41 219.33 270.80 215.78 260.22 C 212.23 249.64 207.15 233.31 198.70 225.30 C 190.25 217.29 181.44 204.83 170.00 202.00 Z"/>
</g>
<g fill="None" fill-opacity="0.0" stroke="#FFFFFF" stroke-opacity="0.96" stroke-width="0.3"><path d="
M 34.00 215.00 
C 21.20 214.96 10.53 219.10 15.68 231.32 C 20.83 243.54 22.41 246.89 29.75 255.25 C 37.09 263.61 41.54 267.15 50.31 271.69 C 59.07 276.24 68.49 281.20 78.33 281.67 C 88.17 282.14 104.00 284.66 112.92 279.92 C 121.83 275.17 110.21 260.83 106.30 254.70 C 102.40 248.57 95.02 241.33 88.25 235.75 C 81.47 230.17 73.73 224.44 65.03 220.97 C 56.33 217.51 43.64 215.03 34.00 215.00 Z"/>
</g>
<g fill="None" fill-opacity="0.0" stroke="#FFFFFF" stroke-opacity="0.96" stroke-width="0.3"><path d="
M 475.00 223.00 
C 466.17 222.48 456.56 225.38 449.23 229.23 C 441.90 233.08 436.76 235.88 430.75 241.75 C 424.74 247.63 420.75 251.06 415.75 257.75 C 410.76 264.45 407.97 269.51 403.98 277.98 C 399.98 286.44 401.84 294.10 400.00 305.00 C 398.16 315.90 405.52 321.06 414.99 316.99 C 424.47 312.92 428.62 312.24 435.92 306.92 C 443.23 301.60 447.84 298.75 453.23 292.23 C 458.62 285.71 461.43 280.83 465.75 273.75 C 470.06 266.66 472.19 259.41 474.22 251.22 C 476.26 243.04 476.98 231.64 475.00 223.00 Z"/>
</g>
<g fill="None" fill-opacity="0.0" stroke="#FFFFFF" stroke-opacity="0.98" stroke-width="0.3"><path d="
M 298.00 922.00 
L 315.00 922.00
C 325.56 918.09 333.29 914.14 339.23 903.23 C 345.17 892.32 344.17 878.33 344.00 865.00 C 343.83 851.67 344.08 836.81 344.00 823.00 C 343.92 809.19 344.04 794.01 344.00 780.00 C 343.96 765.99 344.02 752.11 344.00 738.00 C 343.98 723.89 344.02 709.17 344.00 695.00 C 343.98 680.83 344.04 666.12 344.00 652.00 C 343.96 637.88 344.08 624.02 344.00 610.00 C 343.92 595.98 344.17 580.84 344.00 567.00 C 343.83 553.16 344.37 538.41 344.00 525.00 C 343.63 511.59 343.79 496.44 346.67 484.67 C 349.55 472.90 352.65 463.73 357.70 453.70 C 362.74 443.66 367.83 435.61 373.75 426.75 C 379.66 417.89 386.16 410.88 393.08 403.08 C 400.00 395.29 405.41 387.76 413.25 381.25 C 421.09 374.74 426.42 365.63 435.30 360.30 C 444.19 354.98 449.20 346.60 458.77 341.77 C 468.34 336.94 476.64 321.16 463.02 323.02 C 449.41 324.89 444.28 331.50 434.08 337.08 C 423.88 342.66 417.57 347.77 409.25 354.25 C 400.92 360.72 394.50 368.30 386.77 374.77 C 379.04 381.24 373.49 388.89 365.75 395.75 C 358.02 402.62 352.74 411.50 345.75 418.75 C 338.77 426.00 334.41 437.01 327.00 442.00
C 325.57 430.61 323.28 418.57 323.00 407.00 C 322.72 395.43 325.31 383.16 328.07 373.07 C 330.84 362.98 335.81 354.05 339.22 345.22 C 342.64 336.40 348.96 326.74 352.08 319.08 C 355.19 311.41 365.89 298.16 360.92 291.09 C 355.94 284.01 344.58 300.03 340.25 305.25 C 335.93 310.48 328.87 321.68 324.25 328.25 C 319.63 334.82 313.58 345.01 309.00 352.00
C 305.36 342.63 305.99 329.53 304.78 319.22 C 303.57 308.91 302.32 295.15 303.00 285.00 C 303.68 274.85 305.22 260.71 306.00 252.00 C 306.78 243.29 307.71 221.42 298.25 225.25 C 288.78 229.07 289.41 240.58 285.32 248.32 C 281.24 256.06 279.57 266.84 276.99 275.99 C 274.42 285.15 272.61 298.54 272.79 308.77 C 272.97 319.00 272.59 331.80 273.22 342.78 C 273.85 353.76 276.04 364.77 276.00 376.00
C 267.73 370.75 263.04 362.78 255.75 356.25 C 248.46 349.71 242.34 344.33 234.08 338.92 C 225.82 333.51 219.65 328.33 210.08 323.92 C 200.50 319.51 193.55 314.44 182.02 311.98 C 170.50 309.51 163.15 306.16 149.00 306.00 C 134.86 305.84 140.73 320.05 152.26 321.74 C 163.78 323.44 170.14 329.28 179.77 333.23 C 189.40 337.18 195.90 343.34 204.25 348.75 C 212.60 354.17 218.33 360.09 225.75 366.25 C 233.18 372.41 238.27 378.96 244.25 386.75 C 250.22 394.55 253.94 403.99 257.23 413.77 C 260.52 423.55 263.53 433.88 265.01 444.99 C 266.49 456.11 268.13 468.01 269.00 480.00 C 269.87 491.99 268.62 506.36 269.00 519.00 C 269.38 531.64 268.82 546.10 269.00 559.00 C 269.18 571.90 268.92 585.01 269.00 598.00 C 269.08 610.99 268.97 623.93 269.00 637.00 C 269.03 650.07 268.99 663.92 269.00 677.00 C 269.01 690.08 269.01 702.98 269.00 716.00 C 268.99 729.02 269.04 742.02 269.00 755.00 C 268.96 767.98 269.09 781.07 269.00 794.00 C 268.91 806.93 269.20 821.28 269.00 834.00 C 268.80 846.72 269.45 860.82 269.00 873.00 C 268.55 885.18 268.70 896.64 275.08 905.92 C 281.46 915.19 288.77 918.30 298.00 922.00 Z"/>
</g>
<g fill="None" fill-opacity="0.0" stroke="#FFFFFF" stroke-opacity="0.96" stroke-width="0.3"><path d="
M 600.00 244.00 
C 557.53 235.42 507.04 268.27 504.00 313.00
C 547.14 320.22 597.21 289.24 600.00 244.00 Z"/>
</g>
<g fill="None" fill-opacity="0.0" stroke="#FFFFFF" stroke-opacity="0.96" stroke-width="0.3"><path d="
M 0.00 309.00 
L 0.00 315.00
C 20.48 351.73 77.78 368.43 112.00 340.00
C 90.94 302.31 37.51 291.65 0.00 309.00 Z"/>
</g>
<g fill="None" fill-opacity="0.0" stroke="#FFFFFF" stroke-opacity="0.96" stroke-width="0.3"><path d="
M 557.00 334.00 
C 546.29 332.96 530.36 336.05 521.22 339.22 C 512.09 342.40 502.10 349.24 495.70 354.70 C 489.31 360.16 474.92 369.20 482.77 377.23 C 490.62 385.26 504.68 383.34 515.00 386.00 C 525.32 388.66 541.10 385.49 550.32 382.32 C 559.54 379.15 569.80 372.75 576.30 367.30 C 582.81 361.86 596.30 349.36 588.70 343.31 C 581.09 337.25 565.89 334.86 557.00 334.00 Z"/>
</g>
<g fill="None" fill-opacity="0.0" stroke="#FFFFFF" stroke-opacity="0.96" stroke-width="0.3"><path d="
M 159.00 390.00 
C 146.11 385.21 135.13 379.87 121.22 377.78 C 107.31 375.69 91.19 375.13 77.67 379.67 C 64.15 384.21 57.64 387.92 45.25 396.25 C 32.85 404.57 44.89 414.08 56.32 419.68 C 67.75 425.28 84.55 427.73 98.00 427.00 C 111.45 426.27 124.41 421.94 135.31 415.31 C 146.20 408.67 155.28 402.35 159.00 390.00 Z"/>
</g>
<g fill="None" fill-opacity="0.0" stroke="#FFFFFF" stroke-opacity="0.98" stroke-width="0.3"><path d="
M 533.00 745.00 
C 536.84 763.78 537.98 785.15 541.07 803.93 C 544.17 822.70 563.13 832.60 580.98 827.98 C 598.82 823.35 607.00 804.49 602.78 786.22 C 598.56 767.96 596.71 748.40 593.33 729.67 C 589.95 710.94 587.29 691.88 583.99 673.01 C 580.69 654.13 578.19 635.06 574.98 616.02 C 571.76 596.98 568.63 578.49 565.93 559.07 C 563.23 539.66 558.58 522.97 556.00 503.00 C 553.42 483.03 550.02 467.01 546.99 446.01 C 543.97 425.01 519.44 424.16 502.00 425.00 C 484.56 425.84 458.34 422.15 453.98 442.98 C 449.61 463.80 447.55 479.22 444.00 499.00 C 440.44 518.78 438.81 536.85 435.00 556.00 C 431.19 575.15 429.65 594.12 426.00 613.00 C 422.34 631.87 420.15 651.03 416.78 669.78 C 413.41 688.53 410.83 707.88 407.33 726.33 C 403.82 744.78 402.34 765.29 397.99 782.99 C 393.65 800.70 396.32 821.51 414.99 828.01 C 433.67 834.50 452.28 821.75 454.07 803.07 C 455.87 784.40 460.74 764.03 462.00 745.00
C 485.67 745.00 509.33 745.00 533.00 745.00
M 498.00 479.00 
C 501.23 510.50 506.18 537.28 509.93 569.07 C 513.68 600.87 517.63 625.86 521.93 659.07 C 526.23 692.28 469.36 692.44 474.00 659.00 C 478.64 625.56 481.64 600.77 486.00 569.00 C 490.36 537.22 492.73 509.68 498.00 479.00 Z"/>
</g>
<g fill="None" fill-opacity="0.0" stroke="#FFFFFF" stroke-opacity="0.98" stroke-width="0.3"><path d="
M 771.00 745.00 
C 773.40 756.39 775.24 768.81 776.67 780.33 C 778.10 791.85 777.62 804.42 783.70 814.30 C 789.77 824.19 798.70 828.84 810.00 829.00 C 821.30 829.17 830.70 824.85 837.08 815.08 C 843.47 805.31 842.76 792.36 839.98 781.02 C 837.19 769.69 836.83 757.18 834.33 745.67 C 831.83 734.17 830.59 721.96 828.78 710.22 C 826.97 698.48 824.24 686.94 822.98 675.02 C 821.71 663.11 818.00 651.98 816.99 640.01 C 815.99 628.04 812.59 616.81 811.00 605.00 C 809.41 593.19 807.63 581.29 805.33 569.67 C 803.03 558.05 802.26 545.79 799.78 534.22 C 797.29 522.66 796.27 510.61 794.00 499.00 C 791.73 487.39 790.36 475.23 788.33 463.67 C 786.30 452.11 786.62 441.82 778.25 432.75 C 769.87 423.68 757.04 424.05 745.00 425.00 C 732.96 425.95 717.89 422.61 706.70 426.70 C 695.50 430.78 692.43 440.88 690.78 451.78 C 689.12 462.68 686.79 475.56 684.93 486.93 C 683.06 498.29 681.23 510.49 678.98 521.98 C 676.73 533.46 675.63 545.76 673.33 557.33 C 671.03 568.90 669.87 581.23 667.93 592.93 C 665.98 604.63 663.07 616.06 661.98 627.98 C 660.89 639.89 657.00 651.07 655.99 662.99 C 654.98 674.91 651.50 686.24 650.00 698.00 C 648.50 709.76 646.45 721.83 644.33 733.33 C 642.21 744.83 640.91 757.48 638.78 768.78 C 636.64 780.08 633.75 793.22 634.67 804.33 C 635.59 815.43 642.58 823.67 652.78 827.22 C 662.97 830.78 676.21 829.90 684.25 821.25 C 692.29 812.59 693.23 802.41 694.22 790.22 C 695.21 778.03 698.43 767.71 699.22 754.22 C 700.02 740.74 718.64 745.28 731.00 745.00 C 743.36 744.72 758.40 745.21 771.00 745.00
M 736.00 482.00 
C 739.34 502.60 742.40 524.38 744.93 545.07 C 747.45 565.77 751.23 588.30 753.33 608.67 C 755.42 629.04 762.66 652.54 757.70 671.70 C 752.74 690.85 719.17 691.02 714.23 671.77 C 709.29 652.52 717.20 629.34 718.98 608.98 C 720.76 588.61 724.68 565.71 727.00 545.00 C 729.32 524.29 732.76 502.19 736.00 482.00 Z"/>
</g>
<g fill="None" fill-opacity="0.0" stroke="#FFFFFF" stroke-opacity="0.99" stroke-width="0.3"><path d="
M 914.00 922.00 
L 937.00 922.00
C 977.60 908.70 958.81 857.03 963.00 824.00
C 989.72 821.65 1023.93 830.52 1045.77 815.77 C 1067.60 801.02 1057.62 765.37 1035.92 758.08 C 1014.23 750.78 975.33 765.76 966.08 736.92 C 956.83 708.08 965.68 678.36 963.00 648.00 C 960.32 617.64 965.32 587.87 963.00 557.00 C 960.68 526.13 993.38 517.14 1019.00 521.00 C 1044.62 524.86 1077.41 521.90 1084.00 494.00
L 1084.00 493.00
C 1082.51 489.31 1082.60 483.42 1083.00 479.00
C 1082.97 460.17 1060.78 451.12 1043.00 453.00 C 1025.22 454.88 997.30 451.21 978.00 453.00 C 958.70 454.79 932.72 449.81 913.67 453.67 C 894.63 457.53 887.30 473.84 888.00 493.00 C 888.70 512.16 887.70 537.49 888.00 558.00 C 888.30 578.51 887.90 601.91 888.00 623.00 C 888.10 644.09 888.03 666.71 888.00 688.00 C 887.97 709.29 888.19 731.75 888.00 753.00 C 887.81 774.25 888.46 797.08 888.00 818.00 C 887.54 838.92 889.05 862.91 888.00 883.00 C 886.95 903.09 896.45 915.76 914.00 922.00 Z"/>
</g>
<g fill="None" fill-opacity="0.0" stroke="#000000" stroke-opacity="0.00" stroke-width="0.3"><path d="
M 498.00 479.00 
C 492.73 509.68 490.36 537.22 486.00 569.00 C 481.64 600.77 478.64 625.56 474.00 659.00 C 469.36 692.44 526.23 692.28 521.93 659.07 C 517.63 625.86 513.68 600.87 509.93 569.07 C 506.18 537.28 501.23 510.50 498.00 479.00 Z"/>
</g>
<g fill="None" fill-opacity="0.0" stroke="#FFFFFF" stroke-opacity="0.50" stroke-width="0.3"><path d="
M 1084.00 493.00 
L 1084.00 479.00
C 1084.00 479.00 1083.00 479.00 1083.00 479.00
C 1082.60 483.42 1082.51 489.31 1084.00 493.00 Z"/>
</g>
<g fill="None" fill-opacity="0.0" stroke="#000000" stroke-opacity="0.00" stroke-width="0.3"><path d="
M 736.00 482.00 
C 732.76 502.19 729.32 524.29 727.00 545.00 C 724.68 565.71 720.76 588.61 718.98 608.98 C 717.20 629.34 709.29 652.52 714.23 671.77 C 719.17 691.02 752.74 690.85 757.70 671.70 C 762.66 652.54 755.42 629.04 753.33 608.67 C 751.23 588.30 747.45 565.77 744.93 545.07 C 742.40 524.38 739.34 502.60 736.00 482.00 Z"/>
</g>
<g fill="None" fill-opacity="0.0" stroke="#000000" stroke-opacity="0.00" stroke-width="0.3"><path d="
M 937.00 922.00 
L 1084.00 922.00
L 1084.00 494.00
C 1077.41 521.90 1044.62 524.86 1019.00 521.00 C 993.38 517.14 960.68 526.13 963.00 557.00 C 965.32 587.87 960.32 617.64 963.00 648.00 C 965.68 678.36 956.83 708.08 966.08 736.92 C 975.33 765.76 1014.23 750.78 1035.92 758.08 C 1057.62 765.37 1067.60 801.02 1045.77 815.77 C 1023.93 830.52 989.72 821.65 963.00 824.00
C 958.81 857.03 977.60 908.70 937.00 922.00 Z"/>
</g>
<g fill="None" fill-opacity="0.0" stroke="#FFFFFF" stroke-opacity="0.92" stroke-width="0.3"><path d="
M 420.00 855.00 
C 408.82 851.62 402.28 856.99 399.77 865.77 C 397.26 874.55 392.52 878.82 389.92 886.92 C 387.33 895.03 383.10 899.98 381.00 908.00
C 390.02 908.83 400.49 909.21 401.00 898.00
C 408.33 898.00 415.67 898.00 423.00 898.00
C 422.50 901.81 426.49 904.22 426.00 908.00
C 431.67 908.00 437.33 908.00 443.00 908.00
C 435.77 890.16 426.82 872.94 420.00 855.00
M 412.00 871.00 
C 413.31 876.09 416.25 880.73 417.00 886.00
C 413.33 886.00 409.67 886.00 406.00 886.00
C 407.88 881.05 409.31 875.36 412.00 871.00 Z"/>
</g>
<g fill="None" fill-opacity="0.0" stroke="#FFFFFF" stroke-opacity="0.91" stroke-width="0.3"><path d="
M 460.00 855.00 
C 455.33 855.00 450.67 855.00 446.00 855.00
C 446.00 872.67 446.00 890.33 446.00 908.00
C 451.00 908.00 456.00 908.00 461.00 908.00
C 461.65 899.82 459.70 890.42 462.00 883.00
C 466.79 890.44 469.56 905.15 481.00 903.00
C 484.40 896.22 488.37 888.93 493.00 883.00
C 493.00 891.33 493.00 899.67 493.00 908.00
C 498.00 908.00 503.00 908.00 508.00 908.00
C 508.00 890.33 508.00 872.67 508.00 855.00
C 503.33 855.00 498.67 855.00 494.00 855.00
C 490.09 864.74 482.48 873.02 479.00 883.00
C 470.38 877.34 465.39 864.34 460.00 855.00 Z"/>
</g>
<g fill="None" fill-opacity="0.0" stroke="#FFFFFF" stroke-opacity="0.91" stroke-width="0.3"><path d="
M 560.00 881.00 
C 567.03 873.85 566.93 858.64 555.02 855.98 C 543.11 853.31 529.39 855.94 517.00 855.00
C 517.00 872.67 517.00 890.33 517.00 908.00
C 530.19 907.79 545.75 909.15 557.97 905.97 C 570.20 902.80 571.18 885.48 560.00 881.00
M 533.00 875.00 
C 528.67 867.44 542.83 862.29 548.07 867.93 C 553.32 873.57 537.75 877.81 533.00 875.00
M 533.00 896.00 
C 533.00 893.00 533.00 890.00 533.00 887.00
C 537.05 888.45 551.55 883.42 551.77 891.23 C 551.99 899.04 537.27 895.09 533.00 896.00 Z"/>
</g>
<g fill="None" fill-opacity="0.0" stroke="#FFFFFF" stroke-opacity="0.90" stroke-width="0.3"><path d="
M 590.00 855.00 
C 584.67 855.00 579.33 855.00 574.00 855.00
C 574.00 872.67 574.00 890.33 574.00 908.00
C 579.33 908.00 584.67 908.00 590.00 908.00
C 590.00 890.33 590.00 872.67 590.00 855.00 Z"/>
</g>
<g fill="None" fill-opacity="0.0" stroke="#FFFFFF" stroke-opacity="0.93" stroke-width="0.3"><path d="
M 642.00 855.00 
C 628.00 855.00 614.00 855.00 600.00 855.00
C 600.00 872.67 600.00 890.33 600.00 908.00
C 614.33 908.00 628.67 908.00 643.00 908.00
C 643.00 904.00 643.00 900.00 643.00 896.00
C 633.67 896.00 624.33 896.00 615.00 896.00
C 615.00 893.00 615.00 890.00 615.00 887.00
C 622.67 887.00 630.33 887.00 638.00 887.00
C 638.00 883.00 638.00 879.00 638.00 875.00
C 630.04 873.01 611.80 880.75 615.00 867.00
C 624.00 867.00 633.00 867.00 642.00 867.00
C 642.00 863.00 642.00 859.00 642.00 855.00 Z"/>
</g>
<g fill="None" fill-opacity="0.0" stroke="#FFFFFF" stroke-opacity="0.92" stroke-width="0.3"><path d="
M 664.00 855.00 
C 659.33 855.00 654.67 855.00 650.00 855.00
C 650.00 872.67 650.00 890.33 650.00 908.00
C 655.00 908.00 660.00 908.00 665.00 908.00
C 665.00 899.33 665.00 890.66 665.00 882.00
C 677.47 889.68 681.84 913.31 701.00 908.00
C 701.00 890.33 701.00 872.67 701.00 855.00
C 695.67 855.00 690.33 855.00 685.00 855.00
C 684.35 863.51 686.31 873.25 684.00 881.00
C 677.85 871.68 669.46 864.47 664.00 855.00 Z"/>
</g>
<g fill="None" fill-opacity="0.0" stroke="#FFFFFF" stroke-opacity="0.93" stroke-width="0.3"><path d="
M 752.00 855.00 
C 736.33 855.00 720.66 855.00 705.00 855.00
C 705.00 859.00 705.00 863.00 705.00 867.00
C 710.33 867.00 715.67 867.00 721.00 867.00
C 721.00 880.67 721.00 894.33 721.00 908.00
C 726.33 908.00 731.67 908.00 737.00 908.00
C 737.00 894.33 737.00 880.67 737.00 867.00
C 742.00 867.00 747.00 867.00 752.00 867.00
C 752.00 863.00 752.00 859.00 752.00 855.00 Z"/>
</g>
<g fill="None" fill-opacity="0.0" stroke="#FFFFFF" stroke-opacity="0.91" stroke-width="0.3"><path d="
M 788.00 855.00 
C 782.33 855.00 776.67 855.00 771.00 855.00
C 764.92 873.14 754.70 889.72 749.00 908.00
C 754.33 908.00 759.67 908.00 765.00 908.00
C 764.50 904.19 768.49 901.78 768.00 898.00
C 775.33 898.00 782.67 898.00 790.00 898.00
C 790.55 909.25 800.98 908.82 810.00 908.00
C 803.79 889.89 793.57 873.18 788.00 855.00
M 785.00 886.00 
C 781.33 886.00 777.67 886.00 774.00 886.00
C 774.90 881.14 776.96 876.55 779.00 872.00
C 782.02 875.93 782.62 881.50 785.00 886.00 Z"/>
</g>
<g fill="None" fill-opacity="0.0" stroke="#FFFFFF" stroke-opacity="0.95" stroke-width="0.3"><path d="
M 829.00 855.00 
C 824.00 855.00 819.00 855.00 814.00 855.00
C 814.00 872.67 814.00 890.33 814.00 908.00
C 827.33 908.00 840.67 908.00 854.00 908.00
C 854.00 903.67 854.00 899.33 854.00 895.00
C 845.67 895.00 837.33 895.00 829.00 895.00
C 829.00 881.67 829.00 868.33 829.00 855.00 Z"/>
</g>
<g fill="None" fill-opacity="0.0" stroke="#000000" stroke-opacity="0.00" stroke-width="0.3"><path d="
M 533.00 875.00 
C 537.75 877.81 553.32 873.57 548.07 867.93 C 542.83 862.29 528.67 867.44 533.00 875.00 Z"/>
</g>
<g fill="None" fill-opacity="0.0" stroke="#000000" stroke-opacity="0.00" stroke-width="0.3"><path d="
M 412.00 871.00 
C 409.31 875.36 407.88 881.05 406.00 886.00
C 409.67 886.00 413.33 886.00 417.00 886.00
C 416.25 880.73 413.31 876.09 412.00 871.00 Z"/>
</g>
<g fill="None" fill-opacity="0.0" stroke="#000000" stroke-opacity="0.00" stroke-width="0.3"><path d="
M 785.00 886.00 
C 782.62 881.50 782.02 875.93 779.00 872.00
C 776.96 876.55 774.90 881.14 774.00 886.00
C 777.67 886.00 781.33 886.00 785.00 886.00 Z"/>
</g>
<g fill="None" fill-opacity="0.0" stroke="#000000" stroke-opacity="0.00" stroke-width="0.3"><path d="
M 533.00 896.00 
C 537.27 895.09 551.99 899.04 551.77 891.23 C 551.55 883.42 537.05 888.45 533.00 887.00
C 533.00 890.00 533.00 893.00 533.00 896.00 Z"/>
</g>
<g fill="#000000" fill-opacity="0.00" stroke="None">
<path d="
M 0.00 309.00 
C 37.51 291.65 90.94 302.31 112.00 340.00
C 77.78 368.43 20.48 351.73 0.00 315.00
L 0.00 922.00
L 298.00 922.00
C 288.77 918.30 281.46 915.19 275.08 905.92 C 268.70 896.64 268.55 885.18 269.00 873.00 C 269.45 860.82 268.80 846.72 269.00 834.00 C 269.20 821.28 268.91 806.93 269.00 794.00 C 269.09 781.07 268.96 767.98 269.00 755.00 C 269.04 742.02 268.99 729.02 269.00 716.00 C 269.01 702.98 269.01 690.08 269.00 677.00 C 268.99 663.92 269.03 650.07 269.00 637.00 C 268.97 623.93 269.08 610.99 269.00 598.00 C 268.92 585.01 269.18 571.90 269.00 559.00 C 268.82 546.10 269.38 531.64 269.00 519.00 C 268.62 506.36 269.87 491.99 269.00 480.00 C 268.13 468.01 266.49 456.11 265.01 444.99 C 263.53 433.88 260.52 423.55 257.23 413.77 C 253.94 403.99 250.22 394.55 244.25 386.75 C 238.27 378.96 233.18 372.41 225.75 366.25 C 218.33 360.09 212.60 354.17 204.25 348.75 C 195.90 343.34 189.40 337.18 179.77 333.23 C 170.14 329.28 163.78 323.44 152.26 321.74 C 140.73 320.05 134.86 305.84 149.00 306.00 C 163.15 306.16 170.50 309.51 182.02 311.98 C 193.55 314.44 200.50 319.51 210.08 323.92 C 219.65 328.33 225.82 333.51 234.08 338.92 C 242.34 344.33 248.46 349.71 255.75 356.25 C 263.04 362.78 267.73 370.75 276.00 376.00
C 276.04 364.77 273.85 353.76 273.22 342.78 C 272.59 331.80 272.97 319.00 272.79 308.77 C 272.61 298.54 274.42 285.15 276.99 275.99 C 279.57 266.84 281.24 256.06 285.32 248.32 C 289.41 240.58 288.78 229.07 298.25 225.25 C 307.71 221.42 306.78 243.29 306.00 252.00 C 305.22 260.71 303.68 274.85 303.00 285.00 C 302.32 295.15 303.57 308.91 304.78 319.22 C 305.99 329.53 305.36 342.63 309.00 352.00
C 313.58 345.01 319.63 334.82 324.25 328.25 C 328.87 321.68 335.93 310.48 340.25 305.25 C 344.58 300.03 355.94 284.01 360.92 291.09 C 365.89 298.16 355.19 311.41 352.08 319.08 C 348.96 326.74 342.64 336.40 339.22 345.22 C 335.81 354.05 330.84 362.98 328.07 373.07 C 325.31 383.16 322.72 395.43 323.00 407.00 C 323.28 418.57 325.57 430.61 327.00 442.00
C 334.41 437.01 338.77 426.00 345.75 418.75 C 352.74 411.50 358.02 402.62 365.75 395.75 C 373.49 388.89 379.04 381.24 386.77 374.77 C 394.50 368.30 400.92 360.72 409.25 354.25 C 417.57 347.77 423.88 342.66 434.08 337.08 C 444.28 331.50 449.41 324.89 463.02 323.02 C 476.64 321.16 468.34 336.94 458.77 341.77 C 449.20 346.60 444.19 354.98 435.30 360.30 C 426.42 365.63 421.09 374.74 413.25 381.25 C 405.41 387.76 400.00 395.29 393.08 403.08 C 386.16 410.88 379.66 417.89 373.75 426.75 C 367.83 435.61 362.74 443.66 357.70 453.70 C 352.65 463.73 349.55 472.90 346.67 484.67 C 343.79 496.44 343.63 511.59 344.00 525.00 C 344.37 538.41 343.83 553.16 344.00 567.00 C 344.17 580.84 343.92 595.98 344.00 610.00 C 344.08 624.02 343.96 637.88 344.00 652.00 C 344.04 666.12 343.98 680.83 344.00 695.00 C 344.02 709.17 343.98 723.89 344.00 738.00 C 344.02 752.11 343.96 765.99 344.00 780.00 C 344.04 794.01 343.92 809.19 344.00 823.00 C 344.08 836.81 343.83 851.67 344.00 865.00 C 344.17 878.33 345.17 892.32 339.23 903.23 C 333.29 914.14 325.56 918.09 315.00 922.00
L 914.00 922.00
C 896.45 915.76 886.95 903.09 888.00 883.00 C 889.05 862.91 887.54 838.92 888.00 818.00 C 888.46 797.08 887.81 774.25 888.00 753.00 C 888.19 731.75 887.97 709.29 888.00 688.00 C 888.03 666.71 888.10 644.09 888.00 623.00 C 887.90 601.91 888.30 578.51 888.00 558.00 C 887.70 537.49 888.70 512.16 888.00 493.00 C 887.30 473.84 894.63 457.53 913.67 453.67 C 932.72 449.81 958.70 454.79 978.00 453.00 C 997.30 451.21 1025.22 454.88 1043.00 453.00 C 1060.78 451.12 1082.97 460.17 1083.00 479.00
C 1083.00 479.00 1084.00 479.00 1084.00 479.00
L 1084.00 0.00
L 281.00 0.00
C 290.05 7.51 294.06 15.19 298.92 26.08 C 303.79 36.97 305.17 50.63 304.07 63.07 C 302.97 75.52 298.38 85.18 292.08 96.08 C 285.78 106.99 275.50 109.14 268.25 97.75 C 260.99 86.36 257.13 78.67 255.00 66.00 C 252.88 53.32 253.41 37.98 257.78 26.78 C 262.14 15.57 266.60 6.63 276.00 0.00
L 0.00 0.00
L 0.00 309.00
M 373.00 15.00 
C 386.66 48.80 364.09 94.56 327.00 100.00
C 316.83 64.93 337.25 23.07 373.00 15.00
M 185.00 40.00 
C 193.68 40.42 200.71 44.42 208.08 48.92 C 215.44 53.43 218.61 58.57 224.92 65.08 C 231.22 71.59 232.61 77.17 236.98 86.02 C 241.35 94.88 240.66 102.29 242.00 114.00 C 243.34 125.71 234.97 128.50 226.31 122.69 C 217.64 116.89 213.01 116.21 206.25 109.75 C 199.49 103.29 195.30 99.86 191.08 91.92 C 186.87 83.98 183.87 76.63 182.22 67.78 C 180.57 58.93 180.45 47.74 185.00 40.00
M 442.00 54.00 
C 449.98 57.49 444.98 74.17 445.00 81.00 C 445.02 87.83 440.16 98.65 437.08 105.08 C 434.00 111.51 429.95 119.65 425.23 125.23 C 420.51 130.81 415.54 137.33 409.75 141.75 C 403.96 146.17 397.49 151.93 390.77 154.77 C 384.05 157.61 374.12 164.69 366.78 161.22 C 359.44 157.75 361.68 142.16 363.00 135.00 C 364.32 127.83 365.94 115.84 368.98 108.98 C 372.01 102.11 376.46 94.69 380.92 88.92 C 385.39 83.15 391.30 77.43 396.75 72.75 C 402.21 68.07 409.92 63.29 416.25 60.25 C 422.57 57.20 434.63 50.78 442.00 54.00
M 120.00 76.00 
C 128.49 77.06 136.28 83.93 144.08 87.92 C 151.88 91.92 157.00 99.39 162.30 106.70 C 167.61 114.00 171.03 122.74 173.33 131.67 C 175.62 140.60 177.90 160.28 166.00 158.00 C 154.10 155.72 149.60 152.31 140.77 147.23 C 131.94 142.15 127.64 136.56 121.75 129.25 C 115.85 121.95 112.71 111.94 112.00 103.00 C 111.29 94.05 105.73 74.22 120.00 76.00
M 518.00 101.00 
C 516.72 111.04 517.41 125.96 512.68 134.68 C 507.95 143.39 503.90 152.37 496.75 158.75 C 489.61 165.14 482.68 172.72 474.31 175.30 C 465.93 177.89 451.66 187.71 444.25 180.75 C 436.85 173.78 444.01 156.96 446.78 148.78 C 449.54 140.59 455.40 130.85 461.77 123.77 C 468.14 116.69 475.09 111.90 484.08 107.08 C 493.07 102.25 506.90 99.55 518.00 101.00
M 323.00 122.00 
C 328.23 124.58 327.23 135.28 329.33 140.67 C 331.43 146.06 329.43 158.01 329.22 164.22 C 329.01 170.43 326.89 178.70 324.23 184.23 C 321.57 189.76 319.82 196.25 315.75 200.75 C 311.67 205.24 308.68 211.00 304.10 214.10 C 299.52 217.20 293.84 225.19 287.33 221.67 C 280.82 218.15 282.36 209.34 281.00 203.00 C 279.64 196.66 280.02 185.87 280.00 179.00 C 279.98 172.13 282.36 164.58 284.92 158.92 C 287.47 153.26 289.88 147.13 293.77 142.77 C 297.66 138.41 300.99 132.53 305.25 129.25 C 309.51 125.97 317.35 119.21 323.00 122.00
M 66.00 138.00 
C 77.02 139.97 88.90 145.15 98.70 151.30 C 108.49 157.46 116.21 163.83 122.77 174.23 C 129.33 184.63 134.77 193.03 136.00 207.00 C 137.22 220.98 115.04 214.84 104.99 211.01 C 94.94 207.18 84.90 201.41 76.75 193.25 C 68.60 185.09 61.30 176.45 57.08 165.92 C 52.85 155.40 46.36 134.48 66.00 138.00
M 209.00 142.00 
C 216.75 142.97 224.47 149.21 231.08 153.92 C 237.70 158.63 243.65 163.91 248.75 171.25 C 253.86 178.58 258.12 184.41 260.93 194.07 C 263.73 203.74 264.47 213.22 265.00 225.00 C 265.53 236.78 251.94 235.60 244.32 230.68 C 236.70 225.76 229.89 222.73 223.75 216.25 C 217.61 209.76 212.77 203.59 209.08 195.92 C 205.38 188.26 200.07 177.58 201.00 169.00 C 201.93 160.42 197.35 140.54 209.00 142.00
M 566.00 163.00 
C 567.00 173.63 565.56 187.98 562.07 197.07 C 558.58 206.16 554.33 214.45 548.25 221.25 C 542.16 228.05 534.39 235.23 526.92 237.92 C 519.46 240.61 504.98 251.41 498.71 244.29 C 492.44 237.18 498.62 219.55 499.99 210.99 C 501.36 202.44 507.73 193.47 513.25 186.25 C 518.76 179.03 525.83 173.58 534.69 169.69 C 543.56 165.81 555.47 161.96 566.00 163.00
M 417.00 167.00 
C 419.16 177.93 421.27 191.67 418.67 202.67 C 416.07 213.67 413.54 222.66 408.23 232.23 C 402.92 241.79 399.32 246.70 391.25 255.25 C 383.18 263.79 378.92 264.88 368.92 272.92 C 358.93 280.97 348.73 274.45 350.00 261.00 C 351.27 247.55 349.94 236.10 353.98 224.98 C 358.01 213.85 361.40 207.54 367.75 198.75 C 374.11 189.96 378.83 184.85 387.25 178.25 C 395.66 171.64 406.23 167.65 417.00 167.00
M 170.00 202.00 
C 181.44 204.83 190.25 217.29 198.70 225.30 C 207.15 233.31 212.23 249.64 215.78 260.22 C 219.33 270.80 220.96 301.41 206.78 298.22 C 192.60 295.03 185.61 285.31 175.77 277.23 C 165.93 269.15 160.96 252.94 159.07 241.93 C 157.19 230.92 151.80 197.49 170.00 202.00
M 34.00 215.00 
C 43.64 215.03 56.33 217.51 65.03 220.97 C 73.73 224.44 81.47 230.17 88.25 235.75 C 95.02 241.33 102.40 248.57 106.30 254.70 C 110.21 260.83 121.83 275.17 112.92 279.92 C 104.00 284.66 88.17 282.14 78.33 281.67 C 68.49 281.20 59.07 276.24 50.31 271.69 C 41.54 267.15 37.09 263.61 29.75 255.25 C 22.41 246.89 20.83 243.54 15.68 231.32 C 10.53 219.10 21.20 214.96 34.00 215.00
M 475.00 223.00 
C 476.98 231.64 476.26 243.04 474.22 251.22 C 472.19 259.41 470.06 266.66 465.75 273.75 C 461.43 280.83 458.62 285.71 453.23 292.23 C 447.84 298.75 443.23 301.60 435.92 306.92 C 428.62 312.24 424.47 312.92 414.99 316.99 C 405.52 321.06 398.16 315.90 400.00 305.00 C 401.84 294.10 399.98 286.44 403.98 277.98 C 407.97 269.51 410.76 264.45 415.75 257.75 C 420.75 251.06 424.74 247.63 430.75 241.75 C 436.76 235.88 441.90 233.08 449.23 229.23 C 456.56 225.38 466.17 222.48 475.00 223.00
M 600.00 244.00 
C 597.21 289.24 547.14 320.22 504.00 313.00
C 507.04 268.27 557.53 235.42 600.00 244.00
M 557.00 334.00 
C 565.89 334.86 581.09 337.25 588.70 343.31 C 596.30 349.36 582.81 361.86 576.30 367.30 C 569.80 372.75 559.54 379.15 550.32 382.32 C 541.10 385.49 525.32 388.66 515.00 386.00 C 504.68 383.34 490.62 385.26 482.77 377.23 C 474.92 369.20 489.31 360.16 495.70 354.70 C 502.10 349.24 512.09 342.40 521.22 339.22 C 530.36 336.05 546.29 332.96 557.00 334.00
M 159.00 390.00 
C 155.28 402.35 146.20 408.67 135.31 415.31 C 124.41 421.94 111.45 426.27 98.00 427.00 C 84.55 427.73 67.75 425.28 56.32 419.68 C 44.89 414.08 32.85 404.57 45.25 396.25 C 57.64 387.92 64.15 384.21 77.67 379.67 C 91.19 375.13 107.31 375.69 121.22 377.78 C 135.13 379.87 146.11 385.21 159.00 390.00
M 533.00 745.00 
C 509.33 745.00 485.67 745.00 462.00 745.00
C 460.74 764.03 455.87 784.40 454.07 803.07 C 452.28 821.75 433.67 834.50 414.99 828.01 C 396.32 821.51 393.65 800.70 397.99 782.99 C 402.34 765.29 403.82 744.78 407.33 726.33 C 410.83 707.88 413.41 688.53 416.78 669.78 C 420.15 651.03 422.34 631.87 426.00 613.00 C 429.65 594.12 431.19 575.15 435.00 556.00 C 438.81 536.85 440.44 518.78 444.00 499.00 C 447.55 479.22 449.61 463.80 453.98 442.98 C 458.34 422.15 484.56 425.84 502.00 425.00 C 519.44 424.16 543.97 425.01 546.99 446.01 C 550.02 467.01 553.42 483.03 556.00 503.00 C 558.58 522.97 563.23 539.66 565.93 559.07 C 568.63 578.49 571.76 596.98 574.98 616.02 C 578.19 635.06 580.69 654.13 583.99 673.01 C 587.29 691.88 589.95 710.94 593.33 729.67 C 596.71 748.40 598.56 767.96 602.78 786.22 C 607.00 804.49 598.82 823.35 580.98 827.98 C 563.13 832.60 544.17 822.70 541.07 803.93 C 537.98 785.15 536.84 763.78 533.00 745.00
M 771.00 745.00 
C 758.40 745.21 743.36 744.72 731.00 745.00 C 718.64 745.28 700.02 740.74 699.22 754.22 C 698.43 767.71 695.21 778.03 694.22 790.22 C 693.23 802.41 692.29 812.59 684.25 821.25 C 676.21 829.90 662.97 830.78 652.78 827.22 C 642.58 823.67 635.59 815.43 634.67 804.33 C 633.75 793.22 636.64 780.08 638.78 768.78 C 640.91 757.48 642.21 744.83 644.33 733.33 C 646.45 721.83 648.50 709.76 650.00 698.00 C 651.50 686.24 654.98 674.91 655.99 662.99 C 657.00 651.07 660.89 639.89 661.98 627.98 C 663.07 616.06 665.98 604.63 667.93 592.93 C 669.87 581.23 671.03 568.90 673.33 557.33 C 675.63 545.76 676.73 533.46 678.98 521.98 C 681.23 510.49 683.06 498.29 684.93 486.93 C 686.79 475.56 689.12 462.68 690.78 451.78 C 692.43 440.88 695.50 430.78 706.70 426.70 C 717.89 422.61 732.96 425.95 745.00 425.00 C 757.04 424.05 769.87 423.68 778.25 432.75 C 786.62 441.82 786.30 452.11 788.33 463.67 C 790.36 475.23 791.73 487.39 794.00 499.00 C 796.27 510.61 797.29 522.66 799.78 534.22 C 802.26 545.79 803.03 558.05 805.33 569.67 C 807.63 581.29 809.41 593.19 811.00 605.00 C 812.59 616.81 815.99 628.04 816.99 640.01 C 818.00 651.98 821.71 663.11 822.98 675.02 C 824.24 686.94 826.97 698.48 828.78 710.22 C 830.59 721.96 831.83 734.17 834.33 745.67 C 836.83 757.18 837.19 769.69 839.98 781.02 C 842.76 792.36 843.47 805.31 837.08 815.08 C 830.70 824.85 821.30 829.17 810.00 829.00 C 798.70 828.84 789.77 824.19 783.70 814.30 C 777.62 804.42 778.10 791.85 776.67 780.33 C 775.24 768.81 773.40 756.39 771.00 745.00
M 420.00 855.00 
C 426.82 872.94 435.77 890.16 443.00 908.00
C 437.33 908.00 431.67 908.00 426.00 908.00
C 426.49 904.22 422.50 901.81 423.00 898.00
C 415.67 898.00 408.33 898.00 401.00 898.00
C 400.49 909.21 390.02 908.83 381.00 908.00
C 383.10 899.98 387.33 895.03 389.92 886.92 C 392.52 878.82 397.26 874.55 399.77 865.77 C 402.28 856.99 408.82 851.62 420.00 855.00
M 460.00 855.00 
C 465.39 864.34 470.38 877.34 479.00 883.00
C 482.48 873.02 490.09 864.74 494.00 855.00
C 498.67 855.00 503.33 855.00 508.00 855.00
C 508.00 872.67 508.00 890.33 508.00 908.00
C 503.00 908.00 498.00 908.00 493.00 908.00
C 493.00 899.67 493.00 891.33 493.00 883.00
C 488.37 888.93 484.40 896.22 481.00 903.00
C 469.56 905.15 466.79 890.44 462.00 883.00
C 459.70 890.42 461.65 899.82 461.00 908.00
C 456.00 908.00 451.00 908.00 446.00 908.00
C 446.00 890.33 446.00 872.67 446.00 855.00
C 450.67 855.00 455.33 855.00 460.00 855.00
M 560.00 881.00 
C 571.18 885.48 570.20 902.80 557.97 905.97 C 545.75 909.15 530.19 907.79 517.00 908.00
C 517.00 890.33 517.00 872.67 517.00 855.00
C 529.39 855.94 543.11 853.31 555.02 855.98 C 566.93 858.64 567.03 873.85 560.00 881.00
M 590.00 855.00 
C 590.00 872.67 590.00 890.33 590.00 908.00
C 584.67 908.00 579.33 908.00 574.00 908.00
C 574.00 890.33 574.00 872.67 574.00 855.00
C 579.33 855.00 584.67 855.00 590.00 855.00
M 642.00 855.00 
C 642.00 859.00 642.00 863.00 642.00 867.00
C 633.00 867.00 624.00 867.00 615.00 867.00
C 611.80 880.75 630.04 873.01 638.00 875.00
C 638.00 879.00 638.00 883.00 638.00 887.00
C 630.33 887.00 622.67 887.00 615.00 887.00
C 615.00 890.00 615.00 893.00 615.00 896.00
C 624.33 896.00 633.67 896.00 643.00 896.00
C 643.00 900.00 643.00 904.00 643.00 908.00
C 628.67 908.00 614.33 908.00 600.00 908.00
C 600.00 890.33 600.00 872.67 600.00 855.00
C 614.00 855.00 628.00 855.00 642.00 855.00
M 664.00 855.00 
C 669.46 864.47 677.85 871.68 684.00 881.00
C 686.31 873.25 684.35 863.51 685.00 855.00
C 690.33 855.00 695.67 855.00 701.00 855.00
C 701.00 872.67 701.00 890.33 701.00 908.00
C 681.84 913.31 677.47 889.68 665.00 882.00
C 665.00 890.66 665.00 899.33 665.00 908.00
C 660.00 908.00 655.00 908.00 650.00 908.00
C 650.00 890.33 650.00 872.67 650.00 855.00
C 654.67 855.00 659.33 855.00 664.00 855.00
M 752.00 855.00 
C 752.00 859.00 752.00 863.00 752.00 867.00
C 747.00 867.00 742.00 867.00 737.00 867.00
C 737.00 880.67 737.00 894.33 737.00 908.00
C 731.67 908.00 726.33 908.00 721.00 908.00
C 721.00 894.33 721.00 880.67 721.00 867.00
C 715.67 867.00 710.33 867.00 705.00 867.00
C 705.00 863.00 705.00 859.00 705.00 855.00
C 720.66 855.00 736.33 855.00 752.00 855.00
M 788.00 855.00 
C 793.57 873.18 803.79 889.89 810.00 908.00
C 800.98 908.82 790.55 909.25 790.00 898.00
C 782.67 898.00 775.33 898.00 768.00 898.00
C 768.49 901.78 764.50 904.19 765.00 908.00
C 759.67 908.00 754.33 908.00 749.00 908.00
C 754.70 889.72 764.92 873.14 771.00 855.00
C 776.67 855.00 782.33 855.00 788.00 855.00
M 829.00 855.00 
C 829.00 868.33 829.00 881.67 829.00 895.00
C 837.33 895.00 845.67 895.00 854.00 895.00
C 854.00 899.33 854.00 903.67 854.00 908.00
C 840.67 908.00 827.33 908.00 814.00 908.00
C 814.00 890.33 814.00 872.67 814.00 855.00
C 819.00 855.00 824.00 855.00 829.00 855.00 Z"/>
</g>
<g fill="#FFFFFF" fill-opacity="0.96" stroke="None">
<path d="
M 281.00 0.00 
L 276.00 0.00
C 266.60 6.63 262.14 15.57 257.78 26.78 C 253.41 37.98 252.88 53.32 255.00 66.00 C 257.13 78.67 260.99 86.36 268.25 97.75 C 275.50 109.14 285.78 106.99 292.08 96.08 C 298.38 85.18 302.97 75.52 304.07 63.07 C 305.17 50.63 303.79 36.97 298.92 26.08 C 294.06 15.19 290.05 7.51 281.00 0.00 Z"/>
</g>
<g fill="#FFFFFF" fill-opacity="0.95" stroke="None">
<path d="
M 373.00 15.00 
C 337.25 23.07 316.83 64.93 327.00 100.00
C 364.09 94.56 386.66 48.80 373.00 15.00 Z"/>
</g>
<g fill="#FFFFFF" fill-opacity="0.96" stroke="None">
<path d="
M 185.00 40.00 
C 180.45 47.74 180.57 58.93 182.22 67.78 C 183.87 76.63 186.87 83.98 191.08 91.92 C 195.30 99.86 199.49 103.29 206.25 109.75 C 213.01 116.21 217.64 116.89 226.31 122.69 C 234.97 128.50 243.34 125.71 242.00 114.00 C 240.66 102.29 241.35 94.88 236.98 86.02 C 232.61 77.17 231.22 71.59 224.92 65.08 C 218.61 58.57 215.44 53.43 208.08 48.92 C 200.71 44.42 193.68 40.42 185.00 40.00 Z"/>
</g>
<g fill="#FFFFFF" fill-opacity="0.96" stroke="None">
<path d="
M 442.00 54.00 
C 434.63 50.78 422.57 57.20 416.25 60.25 C 409.92 63.29 402.21 68.07 396.75 72.75 C 391.30 77.43 385.39 83.15 380.92 88.92 C 376.46 94.69 372.01 102.11 368.98 108.98 C 365.94 115.84 364.32 127.83 363.00 135.00 C 361.68 142.16 359.44 157.75 366.78 161.22 C 374.12 164.69 384.05 157.61 390.77 154.77 C 397.49 151.93 403.96 146.17 409.75 141.75 C 415.54 137.33 420.51 130.81 425.23 125.23 C 429.95 119.65 434.00 111.51 437.08 105.08 C 440.16 98.65 445.02 87.83 445.00 81.00 C 444.98 74.17 449.98 57.49 442.00 54.00 Z"/>
</g>
<g fill="#FFFFFF" fill-opacity="0.96" stroke="None">
<path d="
M 120.00 76.00 
C 105.73 74.22 111.29 94.05 112.00 103.00 C 112.71 111.94 115.85 121.95 121.75 129.25 C 127.64 136.56 131.94 142.15 140.77 147.23 C 149.60 152.31 154.10 155.72 166.00 158.00 C 177.90 160.28 175.62 140.60 173.33 131.67 C 171.03 122.74 167.61 114.00 162.30 106.70 C 157.00 99.39 151.88 91.92 144.08 87.92 C 136.28 83.93 128.49 77.06 120.00 76.00 Z"/>
</g>
<g fill="#FFFFFF" fill-opacity="0.96" stroke="None">
<path d="
M 518.00 101.00 
C 506.90 99.55 493.07 102.25 484.08 107.08 C 475.09 111.90 468.14 116.69 461.77 123.77 C 455.40 130.85 449.54 140.59 446.78 148.78 C 444.01 156.96 436.85 173.78 444.25 180.75 C 451.66 187.71 465.93 177.89 474.31 175.30 C 482.68 172.72 489.61 165.14 496.75 158.75 C 503.90 152.37 507.95 143.39 512.68 134.68 C 517.41 125.96 516.72 111.04 518.00 101.00 Z"/>
</g>
<g fill="#FFFFFF" fill-opacity="0.96" stroke="None">
<path d="
M 323.00 122.00 
C 317.35 119.21 309.51 125.97 305.25 129.25 C 300.99 132.53 297.66 138.41 293.77 142.77 C 289.88 147.13 287.47 153.26 284.92 158.92 C 282.36 164.58 279.98 172.13 280.00 179.00 C 280.02 185.87 279.64 196.66 281.00 203.00 C 282.36 209.34 280.82 218.15 287.33 221.67 C 293.84 225.19 299.52 217.20 304.10 214.10 C 308.68 211.00 311.67 205.24 315.75 200.75 C 319.82 196.25 321.57 189.76 324.23 184.23 C 326.89 178.70 329.01 170.43 329.22 164.22 C 329.43 158.01 331.43 146.06 329.33 140.67 C 327.23 135.28 328.23 124.58 323.00 122.00 Z"/>
</g>
<g fill="#FFFFFF" fill-opacity="0.96" stroke="None">
<path d="
M 66.00 138.00 
C 46.36 134.48 52.85 155.40 57.08 165.92 C 61.30 176.45 68.60 185.09 76.75 193.25 C 84.90 201.41 94.94 207.18 104.99 211.01 C 115.04 214.84 137.22 220.98 136.00 207.00 C 134.77 193.03 129.33 184.63 122.77 174.23 C 116.21 163.83 108.49 157.46 98.70 151.30 C 88.90 145.15 77.02 139.97 66.00 138.00 Z"/>
</g>
<g fill="#FFFFFF" fill-opacity="0.96" stroke="None">
<path d="
M 209.00 142.00 
C 197.35 140.54 201.93 160.42 201.00 169.00 C 200.07 177.58 205.38 188.26 209.08 195.92 C 212.77 203.59 217.61 209.76 223.75 216.25 C 229.89 222.73 236.70 225.76 244.32 230.68 C 251.94 235.60 265.53 236.78 265.00 225.00 C 264.47 213.22 263.73 203.74 260.93 194.07 C 258.12 184.41 253.86 178.58 248.75 171.25 C 243.65 163.91 237.70 158.63 231.08 153.92 C 224.47 149.21 216.75 142.97 209.00 142.00 Z"/>
</g>
<g fill="#FFFFFF" fill-opacity="0.96" stroke="None">
<path d="
M 566.00 163.00 
C 555.47 161.96 543.56 165.81 534.69 169.69 C 525.83 173.58 518.76 179.03 513.25 186.25 C 507.73 193.47 501.36 202.44 499.99 210.99 C 498.62 219.55 492.44 237.18 498.71 244.29 C 504.98 251.41 519.46 240.61 526.92 237.92 C 534.39 235.23 542.16 228.05 548.25 221.25 C 554.33 214.45 558.58 206.16 562.07 197.07 C 565.56 187.98 567.00 173.63 566.00 163.00 Z"/>
</g>
<g fill="#FFFFFF" fill-opacity="0.96" stroke="None">
<path d="
M 417.00 167.00 
C 406.23 167.65 395.66 171.64 387.25 178.25 C 378.83 184.85 374.11 189.96 367.75 198.75 C 361.40 207.54 358.01 213.85 353.98 224.98 C 349.94 236.10 351.27 247.55 350.00 261.00 C 348.73 274.45 358.93 280.97 368.92 272.92 C 378.92 264.88 383.18 263.79 391.25 255.25 C 399.32 246.70 402.92 241.79 408.23 232.23 C 413.54 222.66 416.07 213.67 418.67 202.67 C 421.27 191.67 419.16 177.93 417.00 167.00 Z"/>
</g>
<g fill="#FFFFFF" fill-opacity="0.96" stroke="None">
<path d="
M 170.00 202.00 
C 151.80 197.49 157.19 230.92 159.07 241.93 C 160.96 252.94 165.93 269.15 175.77 277.23 C 185.61 285.31 192.60 295.03 206.78 298.22 C 220.96 301.41 219.33 270.80 215.78 260.22 C 212.23 249.64 207.15 233.31 198.70 225.30 C 190.25 217.29 181.44 204.83 170.00 202.00 Z"/>
</g>
<g fill="#FFFFFF" fill-opacity="0.96" stroke="None">
<path d="
M 34.00 215.00 
C 21.20 214.96 10.53 219.10 15.68 231.32 C 20.83 243.54 22.41 246.89 29.75 255.25 C 37.09 263.61 41.54 267.15 50.31 271.69 C 59.07 276.24 68.49 281.20 78.33 281.67 C 88.17 282.14 104.00 284.66 112.92 279.92 C 121.83 275.17 110.21 260.83 106.30 254.70 C 102.40 248.57 95.02 241.33 88.25 235.75 C 81.47 230.17 73.73 224.44 65.03 220.97 C 56.33 217.51 43.64 215.03 34.00 215.00 Z"/>
</g>
<g fill="#FFFFFF" fill-opacity="0.96" stroke="None">
<path d="
M 475.00 223.00 
C 466.17 222.48 456.56 225.38 449.23 229.23 C 441.90 233.08 436.76 235.88 430.75 241.75 C 424.74 247.63 420.75 251.06 415.75 257.75 C 410.76 264.45 407.97 269.51 403.98 277.98 C 399.98 286.44 401.84 294.10 400.00 305.00 C 398.16 315.90 405.52 321.06 414.99 316.99 C 424.47 312.92 428.62 312.24 435.92 306.92 C 443.23 301.60 447.84 298.75 453.23 292.23 C 458.62 285.71 461.43 280.83 465.75 273.75 C 470.06 266.66 472.19 259.41 474.22 251.22 C 476.26 243.04 476.98 231.64 475.00 223.00 Z"/>
</g>
<g fill="#FFFFFF" fill-opacity="0.98" stroke="None">
<path d="
M 298.00 922.00 
L 315.00 922.00
C 325.56 918.09 333.29 914.14 339.23 903.23 C 345.17 892.32 344.17 878.33 344.00 865.00 C 343.83 851.67 344.08 836.81 344.00 823.00 C 343.92 809.19 344.04 794.01 344.00 780.00 C 343.96 765.99 344.02 752.11 344.00 738.00 C 343.98 723.89 344.02 709.17 344.00 695.00 C 343.98 680.83 344.04 666.12 344.00 652.00 C 343.96 637.88 344.08 624.02 344.00 610.00 C 343.92 595.98 344.17 580.84 344.00 567.00 C 343.83 553.16 344.37 538.41 344.00 525.00 C 343.63 511.59 343.79 496.44 346.67 484.67 C 349.55 472.90 352.65 463.73 357.70 453.70 C 362.74 443.66 367.83 435.61 373.75 426.75 C 379.66 417.89 386.16 410.88 393.08 403.08 C 400.00 395.29 405.41 387.76 413.25 381.25 C 421.09 374.74 426.42 365.63 435.30 360.30 C 444.19 354.98 449.20 346.60 458.77 341.77 C 468.34 336.94 476.64 321.16 463.02 323.02 C 449.41 324.89 444.28 331.50 434.08 337.08 C 423.88 342.66 417.57 347.77 409.25 354.25 C 400.92 360.72 394.50 368.30 386.77 374.77 C 379.04 381.24 373.49 388.89 365.75 395.75 C 358.02 402.62 352.74 411.50 345.75 418.75 C 338.77 426.00 334.41 437.01 327.00 442.00
C 325.57 430.61 323.28 418.57 323.00 407.00 C 322.72 395.43 325.31 383.16 328.07 373.07 C 330.84 362.98 335.81 354.05 339.22 345.22 C 342.64 336.40 348.96 326.74 352.08 319.08 C 355.19 311.41 365.89 298.16 360.92 291.09 C 355.94 284.01 344.58 300.03 340.25 305.25 C 335.93 310.48 328.87 321.68 324.25 328.25 C 319.63 334.82 313.58 345.01 309.00 352.00
C 305.36 342.63 305.99 329.53 304.78 319.22 C 303.57 308.91 302.32 295.15 303.00 285.00 C 303.68 274.85 305.22 260.71 306.00 252.00 C 306.78 243.29 307.71 221.42 298.25 225.25 C 288.78 229.07 289.41 240.58 285.32 248.32 C 281.24 256.06 279.57 266.84 276.99 275.99 C 274.42 285.15 272.61 298.54 272.79 308.77 C 272.97 319.00 272.59 331.80 273.22 342.78 C 273.85 353.76 276.04 364.77 276.00 376.00
C 267.73 370.75 263.04 362.78 255.75 356.25 C 248.46 349.71 242.34 344.33 234.08 338.92 C 225.82 333.51 219.65 328.33 210.08 323.92 C 200.50 319.51 193.55 314.44 182.02 311.98 C 170.50 309.51 163.15 306.16 149.00 306.00 C 134.86 305.84 140.73 320.05 152.26 321.74 C 163.78 323.44 170.14 329.28 179.77 333.23 C 189.40 337.18 195.90 343.34 204.25 348.75 C 212.60 354.17 218.33 360.09 225.75 366.25 C 233.18 372.41 238.27 378.96 244.25 386.75 C 250.22 394.55 253.94 403.99 257.23 413.77 C 260.52 423.55 263.53 433.88 265.01 444.99 C 266.49 456.11 268.13 468.01 269.00 480.00 C 269.87 491.99 268.62 506.36 269.00 519.00 C 269.38 531.64 268.82 546.10 269.00 559.00 C 269.18 571.90 268.92 585.01 269.00 598.00 C 269.08 610.99 268.97 623.93 269.00 637.00 C 269.03 650.07 268.99 663.92 269.00 677.00 C 269.01 690.08 269.01 702.98 269.00 716.00 C 268.99 729.02 269.04 742.02 269.00 755.00 C 268.96 767.98 269.09 781.07 269.00 794.00 C 268.91 806.93 269.20 821.28 269.00 834.00 C 268.80 846.72 269.45 860.82 269.00 873.00 C 268.55 885.18 268.70 896.64 275.08 905.92 C 281.46 915.19 288.77 918.30 298.00 922.00 Z"/>
</g>
<g fill="#FFFFFF" fill-opacity="0.96" stroke="None">
<path d="
M 600.00 244.00 
C 557.53 235.42 507.04 268.27 504.00 313.00
C 547.14 320.22 597.21 289.24 600.00 244.00 Z"/>
</g>
<g fill="#FFFFFF" fill-opacity="0.96" stroke="None">
<path d="
M 0.00 309.00 
L 0.00 315.00
C 20.48 351.73 77.78 368.43 112.00 340.00
C 90.94 302.31 37.51 291.65 0.00 309.00 Z"/>
</g>
<g fill="#FFFFFF" fill-opacity="0.96" stroke="None">
<path d="
M 557.00 334.00 
C 546.29 332.96 530.36 336.05 521.22 339.22 C 512.09 342.40 502.10 349.24 495.70 354.70 C 489.31 360.16 474.92 369.20 482.77 377.23 C 490.62 385.26 504.68 383.34 515.00 386.00 C 525.32 388.66 541.10 385.49 550.32 382.32 C 559.54 379.15 569.80 372.75 576.30 367.30 C 582.81 361.86 596.30 349.36 588.70 343.31 C 581.09 337.25 565.89 334.86 557.00 334.00 Z"/>
</g>
<g fill="#FFFFFF" fill-opacity="0.96" stroke="None">
<path d="
M 159.00 390.00 
C 146.11 385.21 135.13 379.87 121.22 377.78 C 107.31 375.69 91.19 375.13 77.67 379.67 C 64.15 384.21 57.64 387.92 45.25 396.25 C 32.85 404.57 44.89 414.08 56.32 419.68 C 67.75 425.28 84.55 427.73 98.00 427.00 C 111.45 426.27 124.41 421.94 135.31 415.31 C 146.20 408.67 155.28 402.35 159.00 390.00 Z"/>
</g>
<g fill="#FFFFFF" fill-opacity="0.98" stroke="None">
<path d="
M 533.00 745.00 
C 536.84 763.78 537.98 785.15 541.07 803.93 C 544.17 822.70 563.13 832.60 580.98 827.98 C 598.82 823.35 607.00 804.49 602.78 786.22 C 598.56 767.96 596.71 748.40 593.33 729.67 C 589.95 710.94 587.29 691.88 583.99 673.01 C 580.69 654.13 578.19 635.06 574.98 616.02 C 571.76 596.98 568.63 578.49 565.93 559.07 C 563.23 539.66 558.58 522.97 556.00 503.00 C 553.42 483.03 550.02 467.01 546.99 446.01 C 543.97 425.01 519.44 424.16 502.00 425.00 C 484.56 425.84 458.34 422.15 453.98 442.98 C 449.61 463.80 447.55 479.22 444.00 499.00 C 440.44 518.78 438.81 536.85 435.00 556.00 C 431.19 575.15 429.65 594.12 426.00 613.00 C 422.34 631.87 420.15 651.03 416.78 669.78 C 413.41 688.53 410.83 707.88 407.33 726.33 C 403.82 744.78 402.34 765.29 397.99 782.99 C 393.65 800.70 396.32 821.51 414.99 828.01 C 433.67 834.50 452.28 821.75 454.07 803.07 C 455.87 784.40 460.74 764.03 462.00 745.00
C 485.67 745.00 509.33 745.00 533.00 745.00
M 498.00 479.00 
C 501.23 510.50 506.18 537.28 509.93 569.07 C 513.68 600.87 517.63 625.86 521.93 659.07 C 526.23 692.28 469.36 692.44 474.00 659.00 C 478.64 625.56 481.64 600.77 486.00 569.00 C 490.36 537.22 492.73 509.68 498.00 479.00 Z"/>
</g>
<g fill="#FFFFFF" fill-opacity="0.98" stroke="None">
<path d="
M 771.00 745.00 
C 773.40 756.39 775.24 768.81 776.67 780.33 C 778.10 791.85 777.62 804.42 783.70 814.30 C 789.77 824.19 798.70 828.84 810.00 829.00 C 821.30 829.17 830.70 824.85 837.08 815.08 C 843.47 805.31 842.76 792.36 839.98 781.02 C 837.19 769.69 836.83 757.18 834.33 745.67 C 831.83 734.17 830.59 721.96 828.78 710.22 C 826.97 698.48 824.24 686.94 822.98 675.02 C 821.71 663.11 818.00 651.98 816.99 640.01 C 815.99 628.04 812.59 616.81 811.00 605.00 C 809.41 593.19 807.63 581.29 805.33 569.67 C 803.03 558.05 802.26 545.79 799.78 534.22 C 797.29 522.66 796.27 510.61 794.00 499.00 C 791.73 487.39 790.36 475.23 788.33 463.67 C 786.30 452.11 786.62 441.82 778.25 432.75 C 769.87 423.68 757.04 424.05 745.00 425.00 C 732.96 425.95 717.89 422.61 706.70 426.70 C 695.50 430.78 692.43 440.88 690.78 451.78 C 689.12 462.68 686.79 475.56 684.93 486.93 C 683.06 498.29 681.23 510.49 678.98 521.98 C 676.73 533.46 675.63 545.76 673.33 557.33 C 671.03 568.90 669.87 581.23 667.93 592.93 C 665.98 604.63 663.07 616.06 661.98 627.98 C 660.89 639.89 657.00 651.07 655.99 662.99 C 654.98 674.91 651.50 686.24 650.00 698.00 C 648.50 709.76 646.45 721.83 644.33 733.33 C 642.21 744.83 640.91 757.48 638.78 768.78 C 636.64 780.08 633.75 793.22 634.67 804.33 C 635.59 815.43 642.58 823.67 652.78 827.22 C 662.97 830.78 676.21 829.90 684.25 821.25 C 692.29 812.59 693.23 802.41 694.22 790.22 C 695.21 778.03 698.43 767.71 699.22 754.22 C 700.02 740.74 718.64 745.28 731.00 745.00 C 743.36 744.72 758.40 745.21 771.00 745.00
M 736.00 482.00 
C 739.34 502.60 742.40 524.38 744.93 545.07 C 747.45 565.77 751.23 588.30 753.33 608.67 C 755.42 629.04 762.66 652.54 757.70 671.70 C 752.74 690.85 719.17 691.02 714.23 671.77 C 709.29 652.52 717.20 629.34 718.98 608.98 C 720.76 588.61 724.68 565.71 727.00 545.00 C 729.32 524.29 732.76 502.19 736.00 482.00 Z"/>
</g>
<g fill="#FFFFFF" fill-opacity="0.99" stroke="None">
<path d="
M 914.00 922.00 
L 937.00 922.00
C 977.60 908.70 958.81 857.03 963.00 824.00
C 989.72 821.65 1023.93 830.52 1045.77 815.77 C 1067.60 801.02 1057.62 765.37 1035.92 758.08 C 1014.23 750.78 975.33 765.76 966.08 736.92 C 956.83 708.08 965.68 678.36 963.00 648.00 C 960.32 617.64 965.32 587.87 963.00 557.00 C 960.68 526.13 993.38 517.14 1019.00 521.00 C 1044.62 524.86 1077.41 521.90 1084.00 494.00
L 1084.00 493.00
C 1082.51 489.31 1082.60 483.42 1083.00 479.00
C 1082.97 460.17 1060.78 451.12 1043.00 453.00 C 1025.22 454.88 997.30 451.21 978.00 453.00 C 958.70 454.79 932.72 449.81 913.67 453.67 C 894.63 457.53 887.30 473.84 888.00 493.00 C 888.70 512.16 887.70 537.49 888.00 558.00 C 888.30 578.51 887.90 601.91 888.00 623.00 C 888.10 644.09 888.03 666.71 888.00 688.00 C 887.97 709.29 888.19 731.75 888.00 753.00 C 887.81 774.25 888.46 797.08 888.00 818.00 C 887.54 838.92 889.05 862.91 888.00 883.00 C 886.95 903.09 896.45 915.76 914.00 922.00 Z"/>
</g>
<g fill="#000000" fill-opacity="0.00" stroke="None">
<path d="
M 498.00 479.00 
C 492.73 509.68 490.36 537.22 486.00 569.00 C 481.64 600.77 478.64 625.56 474.00 659.00 C 469.36 692.44 526.23 692.28 521.93 659.07 C 517.63 625.86 513.68 600.87 509.93 569.07 C 506.18 537.28 501.23 510.50 498.00 479.00 Z"/>
</g>
<g fill="#FFFFFF" fill-opacity="0.50" stroke="None">
<path d="
M 1084.00 493.00 
L 1084.00 479.00
C 1084.00 479.00 1083.00 479.00 1083.00 479.00
C 1082.60 483.42 1082.51 489.31 1084.00 493.00 Z"/>
</g>
<g fill="#000000" fill-opacity="0.00" stroke="None">
<path d="
M 736.00 482.00 
C 732.76 502.19 729.32 524.29 727.00 545.00 C 724.68 565.71 720.76 588.61 718.98 608.98 C 717.20 629.34 709.29 652.52 714.23 671.77 C 719.17 691.02 752.74 690.85 757.70 671.70 C 762.66 652.54 755.42 629.04 753.33 608.67 C 751.23 588.30 747.45 565.77 744.93 545.07 C 742.40 524.38 739.34 502.60 736.00 482.00 Z"/>
</g>
<g fill="#000000" fill-opacity="0.00" stroke="None">
<path d="
M 937.00 922.00 
L 1084.00 922.00
L 1084.00 494.00
C 1077.41 521.90 1044.62 524.86 1019.00 521.00 C 993.38 517.14 960.68 526.13 963.00 557.00 C 965.32 587.87 960.32 617.64 963.00 648.00 C 965.68 678.36 956.83 708.08 966.08 736.92 C 975.33 765.76 1014.23 750.78 1035.92 758.08 C 1057.62 765.37 1067.60 801.02 1045.77 815.77 C 1023.93 830.52 989.72 821.65 963.00 824.00
C 958.81 857.03 977.60 908.70 937.00 922.00 Z"/>
</g>
<g fill="#FFFFFF" fill-opacity="0.92" stroke="None">
<path d="
M 420.00 855.00 
C 408.82 851.62 402.28 856.99 399.77 865.77 C 397.26 874.55 392.52 878.82 389.92 886.92 C 387.33 895.03 383.10 899.98 381.00 908.00
C 390.02 908.83 400.49 909.21 401.00 898.00
C 408.33 898.00 415.67 898.00 423.00 898.00
C 422.50 901.81 426.49 904.22 426.00 908.00
C 431.67 908.00 437.33 908.00 443.00 908.00
C 435.77 890.16 426.82 872.94 420.00 855.00
M 412.00 871.00 
C 413.31 876.09 416.25 880.73 417.00 886.00
C 413.33 886.00 409.67 886.00 406.00 886.00
C 407.88 881.05 409.31 875.36 412.00 871.00 Z"/>
</g>
<g fill="#FFFFFF" fill-opacity="0.91" stroke="None">
<path d="
M 460.00 855.00 
C 455.33 855.00 450.67 855.00 446.00 855.00
C 446.00 872.67 446.00 890.33 446.00 908.00
C 451.00 908.00 456.00 908.00 461.00 908.00
C 461.65 899.82 459.70 890.42 462.00 883.00
C 466.79 890.44 469.56 905.15 481.00 903.00
C 484.40 896.22 488.37 888.93 493.00 883.00
C 493.00 891.33 493.00 899.67 493.00 908.00
C 498.00 908.00 503.00 908.00 508.00 908.00
C 508.00 890.33 508.00 872.67 508.00 855.00
C 503.33 855.00 498.67 855.00 494.00 855.00
C 490.09 864.74 482.48 873.02 479.00 883.00
C 470.38 877.34 465.39 864.34 460.00 855.00 Z"/>
</g>
<g fill="#FFFFFF" fill-opacity="0.91" stroke="None">
<path d="
M 560.00 881.00 
C 567.03 873.85 566.93 858.64 555.02 855.98 C 543.11 853.31 529.39 855.94 517.00 855.00
C 517.00 872.67 517.00 890.33 517.00 908.00
C 530.19 907.79 545.75 909.15 557.97 905.97 C 570.20 902.80 571.18 885.48 560.00 881.00
M 533.00 875.00 
C 528.67 867.44 542.83 862.29 548.07 867.93 C 553.32 873.57 537.75 877.81 533.00 875.00
M 533.00 896.00 
C 533.00 893.00 533.00 890.00 533.00 887.00
C 537.05 888.45 551.55 883.42 551.77 891.23 C 551.99 899.04 537.27 895.09 533.00 896.00 Z"/>
</g>
<g fill="#FFFFFF" fill-opacity="0.90" stroke="None">
<path d="
M 590.00 855.00 
C 584.67 855.00 579.33 855.00 574.00 855.00
C 574.00 872.67 574.00 890.33 574.00 908.00
C 579.33 908.00 584.67 908.00 590.00 908.00
C 590.00 890.33 590.00 872.67 590.00 855.00 Z"/>
</g>
<g fill="#FFFFFF" fill-opacity="0.93" stroke="None">
<path d="
M 642.00 855.00 
C 628.00 855.00 614.00 855.00 600.00 855.00
C 600.00 872.67 600.00 890.33 600.00 908.00
C 614.33 908.00 628.67 908.00 643.00 908.00
C 643.00 904.00 643.00 900.00 643.00 896.00
C 633.67 896.00 624.33 896.00 615.00 896.00
C 615.00 893.00 615.00 890.00 615.00 887.00
C 622.67 887.00 630.33 887.00 638.00 887.00
C 638.00 883.00 638.00 879.00 638.00 875.00
C 630.04 873.01 611.80 880.75 615.00 867.00
C 624.00 867.00 633.00 867.00 642.00 867.00
C 642.00 863.00 642.00 859.00 642.00 855.00 Z"/>
</g>
<g fill="#FFFFFF" fill-opacity="0.92" stroke="None">
<path d="
M 664.00 855.00 
C 659.33 855.00 654.67 855.00 650.00 855.00
C 650.00 872.67 650.00 890.33 650.00 908.00
C 655.00 908.00 660.00 908.00 665.00 908.00
C 665.00 899.33 665.00 890.66 665.00 882.00
C 677.47 889.68 681.84 913.31 701.00 908.00
C 701.00 890.33 701.00 872.67 701.00 855.00
C 695.67 855.00 690.33 855.00 685.00 855.00
C 684.35 863.51 686.31 873.25 684.00 881.00
C 677.85 871.68 669.46 864.47 664.00 855.00 Z"/>
</g>
<g fill="#FFFFFF" fill-opacity="0.93" stroke="None">
<path d="
M 752.00 855.00 
C 736.33 855.00 720.66 855.00 705.00 855.00
C 705.00 859.00 705.00 863.00 705.00 867.00
C 710.33 867.00 715.67 867.00 721.00 867.00
C 721.00 880.67 721.00 894.33 721.00 908.00
C 726.33 908.00 731.67 908.00 737.00 908.00
C 737.00 894.33 737.00 880.67 737.00 867.00
C 742.00 867.00 747.00 867.00 752.00 867.00
C 752.00 863.00 752.00 859.00 752.00 855.00 Z"/>
</g>
<g fill="#FFFFFF" fill-opacity="0.91" stroke="None">
<path d="
M 788.00 855.00 
C 782.33 855.00 776.67 855.00 771.00 855.00
C 764.92 873.14 754.70 889.72 749.00 908.00
C 754.33 908.00 759.67 908.00 765.00 908.00
C 764.50 904.19 768.49 901.78 768.00 898.00
C 775.33 898.00 782.67 898.00 790.00 898.00
C 790.55 909.25 800.98 908.82 810.00 908.00
C 803.79 889.89 793.57 873.18 788.00 855.00
M 785.00 886.00 
C 781.33 886.00 777.67 886.00 774.00 886.00
C 774.90 881.14 776.96 876.55 779.00 872.00
C 782.02 875.93 782.62 881.50 785.00 886.00 Z"/>
</g>
<g fill="#FFFFFF" fill-opacity="0.95" stroke="None">
<path d="
M 829.00 855.00 
C 824.00 855.00 819.00 855.00 814.00 855.00
C 814.00 872.67 814.00 890.33 814.00 908.00
C 827.33 908.00 840.67 908.00 854.00 908.00
C 854.00 903.67 854.00 899.33 854.00 895.00
C 845.67 895.00 837.33 895.00 829.00 895.00
C 829.00 881.67 829.00 868.33 829.00 855.00 Z"/>
</g>
<g fill="#000000" fill-opacity="0.00" stroke="None">
<path d="
M 533.00 875.00 
C 537.75 877.81 553.32 873.57 548.07 867.93 C 542.83 862.29 528.67 867.44 533.00 875.00 Z"/>
</g>
<g fill="#000000" fill-opacity="0.00" stroke="None">
<path d="
M 412.00 871.00 
C 409.31 875.36 407.88 881.05 406.00 886.00
C 409.67 886.00 413.33 886.00 417.00 886.00
C 416.25 880.73 413.31 876.09 412.00 871.00 Z"/>
</g>
<g fill="#000000" fill-opacity="0.00" stroke="None">
<path d="
M 785.00 886.00 
C 782.62 881.50 782.02 875.93 779.00 872.00
C 776.96 876.55 774.90 881.14 774.00 886.00
C 777.67 886.00 781.33 886.00 785.00 886.00 Z"/>
</g>
<g fill="#000000" fill-opacity="0.00" stroke="None">
<path d="
M 533.00 896.00 
C 537.27 895.09 551.99 899.04 551.77 891.23 C 551.55 883.42 537.05 888.45 533.00 887.00
C 533.00 890.00 533.00 893.00 533.00 896.00 Z"/>
</g>
</svg>