<?xml version="1.0" encoding="UTF-8"?>
<!DOCTYPE svg PUBLIC "-//W3C//DTD SVG 1.1//EN" "http://www.w3.org/Graphics/SVG/1.1/DTD/svg11.dtd">
<!-- Creator: CorelDRAW -->
<svg xmlns="http://www.w3.org/2000/svg" xml:space="preserve" width="169.764mm" height="144.536mm" version="1.1" style="shape-rendering:geometricPrecision; text-rendering:geometricPrecision; image-rendering:optimizeQuality; fill-rule:evenodd; clip-rule:evenodd"
viewBox="0 0 16624.39 14153.85"
 xmlns:xlink="http://www.w3.org/1999/xlink"
 xmlns:xodm="http://www.corel.com/coreldraw/odm/2003">
 <defs>
  <style type="text/css">
   <![CDATA[
    .fil0 {fill:#30252A}
    .fil5 {fill:#33B779}
    .fil6 {fill:#33B779}
    .fil2 {fill:#5AB75B}
    .fil4 {fill:#5AB75B}
    .fil1 {fill:#78C44D}
    .fil7 {fill:#B0C933}
    .fil3 {fill:#B0C933}
    .fil8 {fill:#30252A;fill-rule:nonzero}
    .fil9 {fill:#33B779;fill-rule:nonzero}
   ]]>
  </style>
 </defs>
 <g id="Capa_x0020_1">
  <metadata id="CorelCorpID_0Corel-Layer"/>
  <g id="_1741858766880">
   <path class="fil0" d="M4183.88 4750.43c0,498.78 28.19,599.09 65.37,1045.96 -121.88,-64.5 -259.45,-265.69 -376.87,-364.01 -445.97,-373.39 -997.88,-725.54 -1649.71,-725.54 -50.99,0 -87.13,36.17 -87.13,87.19 0,90.64 218.95,135.96 401.7,208.43 399.1,158.18 817.27,475.73 1096.69,777.34 398.55,430.15 445.43,1021.98 498.78,1626.26 35.34,400.47 151.41,1187.65 176.87,1698.31 27.24,546.93 -16.18,788.7 663.86,272.28 24.47,-18.59 -53.2,-198.53 -31.64,-215.6 141.77,-112.09 139.26,-33.31 58.83,-377.73 -108.5,-464.87 196.6,-689.25 282.01,-1247.54 59.34,-387.97 286.69,-808.04 566.32,-1163.84 30.93,-39.33 41.25,-45.16 71.45,-81.09 300.78,-357.62 525.95,-594.33 900.19,-886.67l365.93 -287.92c251.93,-441.84 -677.27,89.38 -1046.79,456.89l-392.36 370.37c-48.48,48.48 -83.66,80.92 -131.16,130.31 -108.35,112.52 -529.29,607.41 -560.7,724.99l-43.58 0c-2.74,-123.29 -65.37,-226.76 -65.37,-610.16 0,-467.18 258.83,-931.76 450.35,-1314.73 37.88,-75.79 132.42,-241.43 138.84,-324.42 8.34,-108.2 -7.55,-123.1 -93.19,-89.16 -198.99,150.19 -467.51,592.82 -609.28,808.78 -37.28,56.76 -65.83,83.8 -82.87,156.86 -76.42,-55.99 -21.96,16.55 -45.65,-85.09l-41.59 -372.47c-10.2,-199.45 -21.7,-344.46 -21.7,-544.85 0,-397.04 107.43,-777.59 0,-980.58 -162.71,13.53 -277.8,408.84 -319.54,552.09 -55.72,191.29 -138.07,529.56 -138.07,755.36z"/>
   <path class="fil1" d="M6820.58 1133.13c0,-206.73 90.61,-481.67 -494.17,-167.3 -293.06,157.56 -541.52,424.25 -664.42,730.2 -33.78,84.09 -228.37,824.34 28.83,774.24 239.86,-46.73 508.04,-223.7 666.74,-383.72 231.47,-233.4 463.02,-605.03 463.02,-953.41z"/>
   <path class="fil2" d="M5382.38 3769.84c0,430.54 -43.63,680.98 464.52,268.41 344,-279.3 581.45,-670.29 581.45,-1183.64 0,-118.68 -34.98,-179.87 -43.58,-283.28 -490.35,0 -1002.39,683.62 -1002.39,1198.51z"/>
   <path class="fil3" d="M588.36 6188.64c29.12,109.11 237.79,224.37 341.88,268.26 752.95,317.46 1469.06,-230.12 1488.56,-464.38 -74.85,-6.23 -154.23,-78.01 -340.1,-139.3 -364.79,-120.31 -746.33,-113.01 -1091.16,59.08 -119.75,59.76 -335.39,181.08 -399.18,276.34z"/>
   <path class="fil4" d="M217.92 3399.4c0,106.89 88.24,297.43 134.27,366.91 38.52,58.16 65.72,83.12 105.21,134.49 159.12,206.97 526.24,413.82 850.07,413.82l338.16 -10.49c107.83,-19.22 177.71,-13.13 76.28,-229.45 -171.61,-365.99 -667.61,-762.45 -1089.97,-762.45 -121.06,0 -414.02,-27.06 -414.02,87.16z"/>
   <path class="fil5" d="M6145.07 4576.11c0,178.5 -12.89,156.24 21.79,305.08 206.09,0 310.4,-63.46 450.56,-137.8 185.98,-98.65 338.66,-272.91 451.75,-441.68 157.72,-235.34 280.37,-574.29 209.03,-880.52 -559.06,12.46 -1133.14,664.61 -1133.14,1154.92z"/>
   <path class="fil4" d="M7735.81 4794.03c359.83,86.15 806.05,-106.1 1015.35,-270.33 191.1,-149.95 444.64,-450.54 444.64,-775.65 -670.53,-156.22 -1459.99,476.72 -1459.99,1045.97z"/>
   <path class="fil4" d="M-0 4750.44c4.21,188.9 242.79,370.86 382.99,466.85 208.08,142.46 437.48,208.66 728.36,208.66 207.07,0 509,-99.41 588.35,-217.91 -59.14,-253.85 -637.21,-588.36 -1089.55,-588.36 -403.47,0 -370.73,74.97 -610.15,130.75z"/>
   <path class="fil4" d="M7365.37 5731.03c115.86,158.13 511.25,196.12 740.89,196.12 418.27,0 937.16,-371.83 958.8,-631.94 -413.93,-219.02 -921.66,-214.72 -1307.83,43.21 -118.13,78.91 -353.55,249.11 -391.86,392.61z"/>
   <path class="fil3" d="M3900.59 719.1l0 152.54c0,270.87 201.45,713.16 414.02,762.68 28.73,-21.05 92.54,-99.59 124.39,-137.11 268.73,-316.55 290.21,-799.85 101.05,-1177.88 -43.62,-87.14 -169.99,-319.34 -269.01,-319.34 -135.25,0 -370.45,402.7 -370.45,719.1z"/>
   <path class="fil5" d="M6864.17 2789.25c148.96,0 299.74,-62.47 407.1,-115.9 148.79,-74.04 206.9,-116.38 317.64,-227.12 103.61,-103.61 150.13,-163.29 219.81,-303.18 128.35,-257.7 123.21,-327.43 123.21,-595.89 -240.45,0 -377.21,12.34 -592.91,147.98 -584.48,367.55 -635.12,1094.11 -474.85,1094.11z"/>
   <path class="fil5" d="M806.27 2200.89c0,426.43 388.83,878.34 775.65,1011.23 569.89,195.77 585.86,109.7 398.46,-354.89 -248.29,-615.49 -1174.11,-868.54 -1174.11,-656.34z"/>
   <path class="fil6" d="M2418.8 3268.65c0,500.26 61.59,844.33 500.98,1155.13 332.07,234.89 414.24,199.91 414.24,-87.37 0,-331.62 -93.1,-594.7 -236.2,-787.97 -77.03,-104.05 -149.95,-188.95 -249.53,-273.46 -128.23,-108.85 -429.5,-339.85 -429.5,-6.33z"/>
   <path class="fil3" d="M3965.96 3595.51c176.56,0 50.14,-565.6 -2.45,-694.86 -36.3,-89.2 -136.18,-247.77 -199.77,-323.23 -115.47,-137 -415.95,-398.34 -647.63,-398.34 -30.17,362.52 -93.27,510.62 158.89,930.66 64.45,107.37 185.96,227.54 285.51,302.85 76.54,57.89 291.98,182.91 405.44,182.91z"/>
   <path class="fil7" d="M7626.86 3617.3c0,89.94 10.21,89.49 43.58,152.54 143.09,-3.19 316.26,-79.26 414.44,-130.33 244.61,-127.24 418.92,-339.72 516.79,-594.55 26.53,-69.08 47.77,-140.22 62.47,-221.12 7.59,-41.83 9.99,-73.66 13.13,-118.11l-4.45 -199.77c-648.72,0 -1045.96,476.53 -1045.96,1111.34z"/>
   <path class="fil7" d="M4292.83 2832.83c0,139.83 12.93,566.56 152.53,566.56 121.71,0 356.58,-265.42 418.9,-365.59 171.7,-276 244.93,-653.36 160.71,-976.69 -26.21,-100.59 -58.04,-106.83 -78.41,-183.1 -125.94,0 -199.8,58.85 -267.59,124.65 -214.08,207.79 -386.13,492.55 -386.13,834.17z"/>
   <path class="fil6" d="M1699.7 1242.09c0,327.54 22.45,592.55 277.02,856.1 171.44,177.47 703.57,454.14 703.57,255.24 0,-370.15 -83.5,-572.13 -260.87,-806.89 -159.61,-211.26 -719.73,-509.31 -719.73,-304.44z"/>
   <path class="fil6" d="M2789.25 806.26c0,445.76 190.55,766.89 527.11,976.47 449.27,279.77 388.11,100.37 388.11,-104.83 0,-378.37 -238.78,-723.18 -519.59,-918.61 -67.07,-46.67 -236.11,-141.31 -330.26,-149.15 -40.7,60.77 -65.38,91.91 -65.38,196.12z"/>
   <path class="fil7" d="M4990.14 1133.13c0,165.34 -17.88,264.15 43.58,392.24 700.13,-163.12 854.49,-1018.43 675.53,-1285.68 -143.49,11.95 -282.43,119.53 -383.41,204.95 -46.83,39.6 -62.26,71.99 -101.71,116.21 -105.88,118.73 -233.99,357.91 -233.99,572.27z"/>
   <path class="fil8" d="M4700.32 6952.69c314.86,0 568.78,253.92 568.78,568.79l0 6063.6c0,314.85 -253.91,568.78 -568.78,568.78 -314.86,0 -568.78,-253.92 -568.78,-568.78l0 -6063.6c0,-314.86 253.91,-568.79 568.78,-568.79z"/>
   <path id="_1" class="fil8" d="M14146.14 6952.69l1960.26 0c284.39,0 517.99,233.6 517.99,518 0,284.39 -233.6,517.99 -517.99,517.99l-832.85 0c-284.4,0 -507.85,223.45 -507.85,507.84l0 2600.14c0,284.39 223.45,517.99 507.85,517.99l436.74 0c284.39,0 507.84,233.61 507.84,518 0,284.39 -223.45,507.84 -507.84,507.84l-944.59 0 0 995.37c0,284.39 -233.6,517.99 -517.99,517.99l-101.57 0c-284.39,0 -517.99,-233.6 -517.99,-517.99l0 -6165.17c0,-284.4 233.6,-518 517.99,-518z"/>
   <path class="fil8" d="M9250.25 12175.34l-866.01 -5327.26c-34.99,-183.7 -192.44,-323.67 -376.15,-323.67l-673.57 0c-183.7,0 -341.16,139.97 -376.15,323.67l-874.76 5362.25c-43.73,271.18 166.21,516.11 437.38,516.11 218.69,0 411.13,-166.2 437.38,-384.89l122.47 -918.5 1093.45 0c0,0 34.99,139.97 61.23,332.41l69.98 559.85c34.99,236.18 236.19,411.13 472.37,411.13 288.68,0 516.11,-262.42 472.38,-551.1zm-1618.3 -1635.79c-227.44,0 -402.39,-201.19 -367.4,-437.38l358.65 -2764.23 17.5 0 367.4 2764.23c34.99,227.43 -139.97,437.38 -376.15,437.38z"/>
   <path id="_1_0" class="fil8" d="M12906.74 12175.34l-866.01 -5327.26c-34.99,-183.7 -192.44,-323.67 -376.15,-323.67l-673.57 0c-183.7,0 -341.16,139.97 -376.15,323.67l-874.76 5362.25c-43.73,271.18 166.21,516.11 437.38,516.11 218.69,0 411.13,-166.2 437.38,-384.89l122.47 -918.5 1093.45 0c0,0 34.99,139.97 61.23,332.41l69.98 559.85c34.99,236.18 236.19,411.13 472.37,411.13 288.68,0 516.11,-262.42 472.38,-551.1zm-1618.3 -1635.79c-227.44,0 -402.39,-201.19 -367.4,-437.38l358.65 -2764.23 17.5 0 367.4 2764.23c34.99,227.43 -139.97,437.38 -376.15,437.38z"/>
   <path class="fil8" d="M4700.32 6952.69c314.86,0 568.78,253.92 568.78,568.79l0 6063.6c0,314.85 -253.91,568.78 -568.78,568.78 -314.86,0 -568.78,-253.92 -568.78,-568.78l0 -6063.6c0,-314.86 253.91,-568.79 568.78,-568.79z"/>
   <path id="_1_1" class="fil8" d="M14146.14 6952.69l1960.26 0c284.39,0 517.99,233.6 517.99,518 0,284.39 -233.6,517.99 -517.99,517.99l-832.85 0c-284.4,0 -507.85,223.45 -507.85,507.84l0 2600.14c0,284.39 223.45,517.99 507.85,517.99l436.74 0c284.39,0 507.84,233.61 507.84,518 0,284.39 -223.45,507.84 -507.84,507.84l-944.59 0 0 995.37c0,284.39 -233.6,517.99 -517.99,517.99l-101.57 0c-284.39,0 -517.99,-233.6 -517.99,-517.99l0 -6165.17c0,-284.4 233.6,-518 517.99,-518z"/>
   <path class="fil9" d="M5852.35 13931.81l353.79 -801.46 223.26 0 354.93 801.46 -235.86 0 -277.08 -690.4 89.31 0 -277.07 690.4 -231.28 0zm193.49 -155.71l58.39 -167.16 391.58 0 58.38 167.16 -508.36 0z"/>
   <polygon id="_1_2" class="fil9" points="6848.45,13931.81 6848.45,13130.35 7035.08,13130.35 7367.12,13675.34 7268.65,13675.34 7591.53,13130.35 7778.16,13130.35 7780.44,13931.81 7572.06,13931.81 7569.77,13447.5 7605.27,13447.5 7363.68,13852.81 7262.93,13852.81 7014.48,13447.5 7057.99,13447.5 7057.99,13931.81 "/>
   <path id="_2" class="fil9" d="M7940.73 13931.81l0 -801.46 409.89 0c105.34,0 183.95,19.27 235.87,57.82 51.9,38.54 77.85,89.11 77.85,151.71 0,41.22 -10.88,77.28 -32.63,108.2 -21.76,30.92 -52.28,55.34 -91.6,73.28 -39.31,17.93 -86.06,26.9 -140.25,26.9l22.9 -54.96c56.48,0 105.72,8.59 147.7,25.76 41.98,17.17 74.61,41.98 97.89,74.41 23.29,32.44 34.92,71.95 34.92,118.51 0,69.46 -28.05,123.46 -84.15,162.01 -56.1,38.54 -137.97,57.82 -245.59,57.82l-432.8 0zm224.41 -163.72l190.07 0c38.93,0 68.51,-6.68 88.73,-20.04 20.23,-13.37 30.35,-33.78 30.35,-61.26 0,-27.48 -10.12,-47.9 -30.35,-61.25 -20.22,-13.36 -49.81,-20.04 -88.73,-20.04l-206.09 0 0 -156.86 171.73 0c38.17,0 66.8,-6.48 85.87,-19.46 19.09,-12.99 28.62,-32.44 28.62,-58.39 0,-25.95 -9.54,-45.23 -28.62,-57.83 -19.08,-12.59 -47.7,-18.89 -85.87,-18.89l-155.71 0 0 474.01z"/>
   <polygon id="_3" class="fil9" points="8821.2,13931.81 8821.2,13130.35 9047.9,13130.35 9047.9,13931.81 "/>
   <path id="_4" class="fil9" d="M9417.73 13440.63l372.1 0 0 169.45 -372.1 0 0 -169.45zm16.02 316l419.06 0 0 175.18 -643.46 0 0 -801.46 628.58 0 0 175.17 -404.17 0 0 451.11z"/>
   <polygon id="_5" class="fil9" points="9978.75,13931.81 9978.75,13130.35 10165.38,13130.35 10607.33,13663.89 10519.16,13663.89 10519.16,13130.35 10741.28,13130.35 10741.28,13931.81 10554.66,13931.81 10112.71,13398.27 10200.87,13398.27 10200.87,13931.81 "/>
   <polygon id="_6" class="fil9" points="11072.17,13931.81 11072.17,13310.11 10826.02,13310.11 10826.02,13130.35 11543.9,13130.35 11543.9,13310.11 11298.87,13310.11 11298.87,13931.81 "/>
   <path id="_7" class="fil9" d="M11492.37 13931.81l353.79 -801.46 223.26 0 354.93 801.46 -235.86 0 -277.08 -690.4 89.31 0 -277.07 690.4 -231.28 0zm193.49 -155.71l58.39 -167.16 391.58 0 58.38 167.16 -508.36 0z"/>
   <polygon id="_8" class="fil9" points="12488.46,13931.81 12488.46,13130.35 12715.16,13130.35 12715.16,13752.06 13097.58,13752.06 13097.58,13931.81 "/>
  </g>
 </g>
</svg>
